<svg xmlns="http://www.w3.org/2000/svg" width="182.719" height="73.628" viewBox="0 0 182.719 73.628">
  <g id="グループ_37" data-name="グループ 37" transform="translate(-32.219 -256.5)">
    <g id="グループ_4" data-name="グループ 4" transform="translate(105.878 256.5)">
      <path id="パス_115" data-name="パス 115" d="M160.46,264.719v-6.587h28.861a90.278,90.278,0,0,1-6.467,16.287,110.632,110.632,0,0,1,10.3,17.125h-8.662a63.333,63.333,0,0,0-5.349-10.339c-3.793,6.866-9.062,10.3-16.407,10.778h-5.03v-6.746h2.515c6.068.04,9.181-1.477,12.135-5.909,1.956-2.754,5.029-9.141,7.026-14.61Z" transform="translate(-157.705 -257.174)" fill="#6cd2ea"/>
      <path id="パス_116" data-name="パス 116" d="M222.642,275.7l13.453-.16-.4-6.227-10.658.16v-6.187l10.259-.16-.439-6.627H242l.439,6.547,12.255-.2v6.187l-11.856.16.4,6.267,13.612-.16v6.547l-13.174.16.639,9.1h-7.145l-.639-9.021-13.892.16Z" transform="translate(-184.525 -256.5)" fill="#6cd2ea"/>
      <path id="パス_117" data-name="パス 117" d="M317.769,281.058v6.786H285.075v-6.786Z" transform="translate(-210.31 -266.643)" fill="#6cd2ea"/>
    </g>
    <path id="パス_118" data-name="パス 118" d="M167.828,345.078v6.787H123.1v-6.787Z" transform="translate(-37.534 -36.584)" fill="#6cd2ea"/>
    <path id="パス_119" data-name="パス 119" d="M224.441,320.808v10.659A165.119,165.119,0,0,1,243,336.7v7.386a162.812,162.812,0,0,0-18.562-5.429v17.525h-7.305V320.808Z" transform="translate(-76.372 -26.56)" fill="#6cd2ea"/>
    <path id="パス_120" data-name="パス 120" d="M316.674,320.388v6.348c0,3.473-.958,4.271-5.11,4.391v1.358h4.711v4.95h-4.711v1.6h5.549v5.15H305.257a6.931,6.931,0,0,0,2.595,2.914,10.052,10.052,0,0,0,1-1.956h6.827a41.663,41.663,0,0,1-2.715,4.471,17.316,17.316,0,0,0,4.671.519v6.227a23.44,23.44,0,0,1-12.415-3.552v2.555c-3.872.4-8.7.718-17.724,1.158v-5.988c1.836-.08,2.155-.08,3.992-.2V344.18h-2.315c-.679,5.988-2.914,9.022-8.3,11.138v-7.784c2-1.277,2.435-2.635,2.475-7.744v-19.4Zm-6.907,6.427v-1.756H289.488v1.756ZM294.478,339.03v-1.6h-3.912v-4.95h3.912v-1.358h-4.99v7.9Zm7.345,10.619a19.257,19.257,0,0,1-3.473-5.469h-.719v5.788Zm3.553-17.165v-1.358h-5.07v1.358Zm0,6.546v-1.6h-5.07v1.6Z" transform="translate(-102.694 -26.386)" fill="#6cd2ea"/>
    <g id="グループ_5" data-name="グループ 5" transform="translate(32.219 257.601)">
      <path id="パス_121" data-name="パス 121" d="M32.219,258.376h68.56v18.461c.251,13.93-7.721,21.734-22.742,22.07H72c-.336,12.755-1.51,17.119-5.79,22.49-4.448,5.286-10.825,8.056-18.294,7.972H32.3V315.775H42.96c11.244.084,14.014-2.769,14.014-14.517V285.4H77.366c6.546-.251,8.979-2.685,9.063-9.063v-3.693H32.219Z" transform="translate(-32.219 -258.376)" fill="#6cd2ea"/>
    </g>
    <text id="ASCII_ART" data-name="ASCII ART" transform="translate(180.929 285.118)" fill="#6cd2ea" font-size="6" font-family="Helvetica"><tspan x="0" y="0">ASCII ART</tspan></text>
    <text id="_EXHIBITION" data-name=" EXHIBITION" transform="translate(179.407 290.181)" fill="#6cd2ea" font-size="4" font-family="Helvetica"><tspan x="0" y="0" xml:space="preserve"> EXHIBITION</tspan></text>
  </g>
</svg>
