<svg xmlns="http://www.w3.org/2000/svg" width="686.545" height="543.368" viewBox="0 0 686.545 543.368">
  <g id="グループ_200" data-name="グループ 200" transform="translate(-60.109 -312.521)">
    <g id="グループ_198" data-name="グループ 198" transform="translate(61.428 680.41) rotate(1)">
      <path id="パス_62" data-name="パス 62" d="M0,2.529,44.626,0l.1,1.784L.1,4.312Z" transform="translate(0 71.293)" fill="#e06f22"/>
      <path id="パス_63" data-name="パス 63" d="M21.2.072c.018.358-.326.6-.9.724l-.014,1.3C21.133,8.36,24.99,29.049,42.43,35.8A9.977,9.977,0,0,0,40.3,38.433c-12.372-5.029-18.06-16.885-20.678-26l-.047,0C18.21,21.6,14.27,33.462,2.54,40.525A10.888,10.888,0,0,0,0,38.387C18.081,28.007,16.971,6.043,16.942,0Z" transform="translate(45.693 30.338)" fill="#e06f22"/>
      <path id="パス_64" data-name="パス 64" d="M21.2.075c.021.355-.326.6-.9.72l-.018,1.3C21.133,8.36,24.99,29.049,42.43,35.8A9.979,9.979,0,0,0,40.3,38.433c-12.372-5.029-18.056-16.885-20.678-26l-.047,0C18.21,21.6,14.274,33.462,2.54,40.525A10.819,10.819,0,0,0,0,38.387C18.081,28.006,16.971,6.043,16.942,0Z" transform="translate(90.323 27.809)" fill="#e06f22"/>
      <path id="パス_65" data-name="パス 65" d="M21.2.072c.021.355-.322.6-.9.72l-.014,1.3c.845,6.264,4.7,26.953,22.143,33.709a10.045,10.045,0,0,0-2.135,2.629c-12.372-5.029-18.056-16.885-20.678-26h-.043c-1.361,9.166-5.3,21.029-17.035,28.1A10.7,10.7,0,0,0,0,38.387C18.078,28,16.971,6.039,16.939,0Z" transform="translate(134.956 25.284)" fill="#e06f22"/>
      <path id="パス_66" data-name="パス 66" d="M21.2.072c.022.358-.322.6-.9.724l-.014,1.3c.845,6.264,4.7,26.953,22.143,33.712a9.977,9.977,0,0,0-2.135,2.625c-12.372-5.029-18.056-16.881-20.678-26h-.043C18.21,21.6,14.27,33.458,2.54,40.525A10.729,10.729,0,0,0,0,38.387C18.081,28,16.971,6.043,16.942,0Z" transform="translate(179.586 22.755)" fill="#e06f22"/>
      <path id="パス_67" data-name="パス 67" d="M21.2.071c.018.358-.326.6-.9.724l-.014,1.3c.849,6.261,4.707,26.95,22.146,33.708A9.909,9.909,0,0,0,40.3,38.429c-12.375-5.029-18.06-16.881-20.681-26l-.043,0C18.21,21.595,14.27,33.458,2.54,40.525A10.724,10.724,0,0,0,0,38.387C18.081,28.006,16.971,6.043,16.942,0Z" transform="translate(224.216 20.227)" fill="#e06f22"/>
      <path id="パス_68" data-name="パス 68" d="M21.2.072c.018.358-.326.6-.9.724l-.018,1.3C21.133,8.356,24.99,29.049,42.43,35.8A10.025,10.025,0,0,0,40.3,38.429c-12.372-5.029-18.06-16.881-20.678-26l-.047,0C18.21,21.595,14.27,33.458,2.54,40.525A10.813,10.813,0,0,0,0,38.387C18.081,28.006,16.971,6.043,16.942,0Z" transform="translate(268.845 17.698)" fill="#e06f22"/>
      <path id="パス_69" data-name="パス 69" d="M21.2.071c.018.358-.323.6-.9.724L20.28,2.1C21.129,8.36,24.987,29.048,42.427,35.8a9.971,9.971,0,0,0-2.135,2.629c-12.372-5.033-18.056-16.885-20.678-26l-.043,0c-1.361,9.162-5.3,21.029-17.035,28.092A10.873,10.873,0,0,0,0,38.386C18.078,28.007,16.967,6.042,16.939,0Z" transform="translate(313.479 15.169)" fill="#e06f22"/>
      <path id="パス_70" data-name="パス 70" d="M21.2.072c.021.358-.326.6-.9.723l-.014,1.3c.845,6.265,4.7,26.953,22.143,33.709a10.046,10.046,0,0,0-2.135,2.629c-12.372-5.029-18.056-16.885-20.678-26l-.043,0C18.21,21.6,14.27,33.462,2.54,40.525A10.966,10.966,0,0,0,0,38.386C18.081,28.006,16.971,6.042,16.942,0Z" transform="translate(358.108 12.64)" fill="#e06f22"/>
      <path id="パス_71" data-name="パス 71" d="M21.2.075c.021.355-.322.6-.9.72l-.014,1.3c.845,6.265,4.7,26.953,22.143,33.708a10.055,10.055,0,0,0-2.135,2.629c-12.372-5.029-18.056-16.885-20.678-26l-.043,0C18.21,21.6,14.27,33.461,2.539,40.525A10.969,10.969,0,0,0,0,38.386C18.081,28.006,16.971,6.042,16.942,0Z" transform="translate(402.738 10.112)" fill="#e06f22"/>
      <path id="パス_72" data-name="パス 72" d="M21.2.072c.021.354-.322.6-.9.72l-.014,1.3C21.129,8.357,24.99,29.045,42.427,35.8A10.038,10.038,0,0,0,40.3,38.43c-12.375-5.029-18.06-16.885-20.681-26h-.043c-1.361,9.166-5.3,21.029-17.032,28.1A10.794,10.794,0,0,0,0,38.387C18.081,28,16.971,6.039,16.942,0Z" transform="translate(447.368 7.586)" fill="#e06f22"/>
      <path id="パス_73" data-name="パス 73" d="M21.2.072c.018.358-.326.6-.9.723l-.018,1.3c.849,6.265,4.706,26.953,22.143,33.713A9.961,9.961,0,0,0,40.3,38.43c-12.372-5.029-18.06-16.881-20.678-26h-.047c-1.361,9.166-5.3,21.029-17.032,28.1A10.727,10.727,0,0,0,0,38.387C18.081,28,16.971,6.043,16.942,0Z" transform="translate(491.997 5.057)" fill="#e06f22"/>
      <path id="パス_74" data-name="パス 74" d="M21.2.072c.022.358-.326.6-.9.723l-.018,1.3C21.133,8.356,24.991,29.045,42.43,35.8A9.9,9.9,0,0,0,40.3,38.43c-12.372-5.029-18.06-16.881-20.678-26l-.047,0C18.21,21.595,14.27,33.458,2.54,40.525A10.722,10.722,0,0,0,0,38.387C18.081,28.006,16.971,6.043,16.942,0Z" transform="translate(536.627 2.529)" fill="#e06f22"/>
      <path id="パス_75" data-name="パス 75" d="M21.2.072c.021.358-.322.6-.9.724l-.014,1.3c.845,6.261,4.7,26.953,22.143,33.708a10.093,10.093,0,0,0-2.135,2.626c-12.372-5.029-18.056-16.881-20.678-26l-.043,0c-1.361,9.162-5.3,21.025-17.032,28.092A10.878,10.878,0,0,0,0,38.387C18.081,28.006,16.971,6.043,16.939,0Z" transform="translate(581.26 0)" fill="#e06f22"/>
      <path id="パス_76" data-name="パス 76" d="M0,2.525,44.623,0l.1,1.784L.1,4.313Z" transform="translate(635.539 35.292)" fill="#e06f22"/>
      <path id="パス_77" data-name="パス 77" d="M1.15,0l34.4,15.287.011.176L3.109,34.536,1.673,32.111,29.711,15.753,29.7,15.66,0,2.572Z" transform="translate(6.225 89.438)" fill="#e06f22"/>
      <path id="パス_78" data-name="パス 78" d="M11.476,27.05l.1,1.741c1.852,1.06,5.985,3.736,7.06,4.481l-1.655,2.421c-.992-.928-3.335-2.765-5.251-4.18L12.325,42l-2.855.161L8.775,29.933c-1.787,4-4.259,7.809-7.042,10.026a13.117,13.117,0,0,0-1.58-2.6A26.954,26.954,0,0,0,7.371,27.283l-7.1.4L.122,24.965l8.346-.473-.315-5.58,3.718.057c-.029.272-.24.509-.813.631l.265,4.731,6.784-.387.154,2.722Zm6.891-7.193L17.7,8.163c-3.646,5.179-9.839,9.646-15.649,12.171A12.377,12.377,0,0,0,0,18.078a35.958,35.958,0,0,0,14.478-10l-13.21.745L1.114,6.107l16.423-.931L17.243,0l3.9.047c-.025.315-.283.552-.856.673l.24,4.287,16.87-.956.154,2.722L23.8,7.551a38.344,38.344,0,0,0,16.2,7.9,15.539,15.539,0,0,0-1.87,2.568C31.868,16.315,25.033,12.63,20.7,7.995l.663,11.691Zm22.519,5.527-8.034.455c2.464,3.979,6.136,7.937,9.427,9.9a15.4,15.4,0,0,0-2.009,2.49A37.962,37.962,0,0,1,31.2,27.455l.763,13.436-2.858.161-.749-13.21A31.558,31.558,0,0,1,19.4,39.587a13.012,13.012,0,0,0-2.045-2.124C20.936,35.156,24.4,30.75,26.473,26.2l-6.114.348-.154-2.722,7.9-.448L27.788,17.8l3.761.054c-.029.269-.283.509-.86.63l.269,4.732,9.775-.555Z" transform="translate(69.495 81.182)" fill="#e06f22"/>
      <path id="パス_79" data-name="パス 79" d="M37.022,1.314a1.148,1.148,0,0,1-.559.434A38.248,38.248,0,0,1,26.7,16.627a19.4,19.4,0,0,0-2.826-1.676A26.952,26.952,0,0,0,32.122,3.381L.172,5.19,0,2.156,33.648.251,34.124,0ZM20.076,10.419c-.025.362-.408.695-.981.817-.7,10.606-3.743,20.85-12.637,26.681a21.633,21.633,0,0,0-2.747-1.9c8.818-5.512,11.548-15.026,12.01-25.84Z" transform="translate(115.181 81.576)" fill="#e06f22"/>
      <path id="パス_80" data-name="パス 80" d="M0,2.11,37.262,0l.179,3.17L1.873,5.183a2.043,2.043,0,0,1-1.379.928Z" transform="translate(157.185 93.568)" fill="#e06f22"/>
      <path id="パス_81" data-name="パス 81" d="M2.848,3.345A54.453,54.453,0,0,1,7.8,14.972L4.871,16.125A59.906,59.906,0,0,0,0,4.448ZM36.3,1.988c-.111.408-.548.612-1.128.645C31.381,18.65,24.607,28.7,10.989,35.61a21.384,21.384,0,0,0-2.282-2.332C22.035,26.745,28.533,17.379,32.032.884ZM16.849,0a75.191,75.191,0,0,1,3.084,12.54l-3.141.67A73.463,73.463,0,0,0,13.758.713Z" transform="translate(200.404 77.995)" fill="#e06f22"/>
      <path id="パス_82" data-name="パス 82" d="M36.968,7.6a1.516,1.516,0,0,1-.684.573c-1.737,4.936-4.918,11.2-8.5,15.076A25.191,25.191,0,0,0,25.012,21.8a32.3,32.3,0,0,0,7-11.5l-16.838,5.43.656,11.558c.247,4.373,2.966,5.7,6.533,5.495l7.275-.412a65.817,65.817,0,0,0,6.623-.867c.054.982.168,2.181.265,3.116a65.705,65.705,0,0,1-6.584.731l-7.454.423c-5.623.319-9.521-2.1-9.868-8.26l-.612-10.8L.928,20.252,0,17.3l11.834-3.671L11.068.068,15.406,0c-.057.541-.444.831-1.064.956L15,12.6,33.6,6.669l.469-.383Z" transform="translate(243.672 74.148)" fill="#e06f22"/>
      <path id="パス_83" data-name="パス 83" d="M1.275,0A55.651,55.651,0,0,1,14.918,5.315l-1.537,2.9A57.129,57.129,0,0,0,0,2.758ZM2.851,30.936C18.414,25.127,28.443,15.653,33.1,2.987A17.411,17.411,0,0,0,36.1,4.653C31.216,17.2,20.868,27.319,6.025,33.218a1.455,1.455,0,0,1-.566,1.06Z" transform="translate(287.163 74.724)" fill="#e06f22"/>
      <path id="パス_84" data-name="パス 84" d="M31.749,6.859a.751.751,0,0,1-.509.519,58.283,58.283,0,0,1-5.724,15.144c1.981,1.007,4.248,2.267,5.967,3.378l-1.708,3.052c-1.676-1.161-4.037-2.5-5.974-3.557A42.147,42.147,0,0,1,8.46,39.873a9.364,9.364,0,0,0-2.586-2.181A42.38,42.38,0,0,0,20.943,23.945a76.03,76.03,0,0,0-10.126-4.083l1.555-2.593a74.739,74.739,0,0,1,10.294,3.94A46.029,46.029,0,0,0,27.4,9.076l-15.13.856A48.413,48.413,0,0,1,2.654,22.788,24.664,24.664,0,0,0,0,20.922C5.591,16.129,10.67,7.783,12.916,0l4.295.741c-.15.5-.587.662-1.171.648C15.5,2.9,14.592,5.143,13.84,6.841L28.655,6l.616-.211Z" transform="translate(327.695 67.783)" fill="#e06f22"/>
      <path id="パス_85" data-name="パス 85" d="M0,2.114,37.266,0l.179,3.17L1.877,5.183A2.064,2.064,0,0,1,.5,6.114Z" transform="translate(368.288 81.609)" fill="#e06f22"/>
      <path id="パス_86" data-name="パス 86" d="M20.237,28.064l2.4,13.876-3.195.541-2.3-13.837L.527,31.778,0,28.809l16.613-3.091-1.726-9.975L.978,18.364.4,15.4l14-2.583L12.873,3.947l4.366-.38c.021.4-.315.777-.974,1l1.282,7.626,13.07-2.443.527,3.016L18.078,15.2l1.684,9.932,16.7-3.095.477,2.927ZM28.232,3.213A32.408,32.408,0,0,1,34.314,9.4L32.6,10.753a35.41,35.41,0,0,0-5.942-6.107ZM33.555,0a35.472,35.472,0,0,1,6.211,6.1l-1.755,1.4a34.208,34.208,0,0,0-6.028-6.014Z" transform="translate(412.563 59.523)" fill="#e06f22"/>
      <path id="パス_87" data-name="パス 87" d="M29.668,6.078a1.148,1.148,0,0,1-.473.337,38.5,38.5,0,0,1-7.332,12.82,13.863,13.863,0,0,0-2.317-1.393A31.266,31.266,0,0,0,25.7,7.959L13.364,11.433l5.183,18.823-2.6.731L10.763,12.164.72,15.058,0,12.594,10.133,9.735,7.6.566,11.283,0c.021.358-.186.638-.752.938l2.156,8.027,14.5-4,.3-.24Z" transform="translate(456.415 68.911)" fill="#e06f22"/>
      <path id="パス_88" data-name="パス 88" d="M34.02,12.257a1.018,1.018,0,0,1-.552.48C30.571,26.42,23.49,33.4,10.359,37.864a13.207,13.207,0,0,0-2.02-2.482C20.3,31.66,27.491,24.983,29.715,14.471L.172,16.147,0,13.109l30.883-1.748.43-.294ZM29.285,2.944,3.851,4.388,3.682,1.44,29.121,0Z" transform="translate(493.316 59.856)" fill="#e06f22"/>
      <path id="パス_89" data-name="パス 89" d="M1.229,24.861,0,3.174,4.252,3.2c-.022.4-.315.734-1.024.863L4.395,24.682ZM24.758.025c-.022.448-.319.691-1.028.82l.8,14.191c.53,9.37-2.2,18.121-14.721,23.8A12.966,12.966,0,0,0,7.35,36.556c12.1-5.294,14.438-13.081,13.969-21.337L20.459,0Z" transform="translate(536.33 56.88)" fill="#e06f22"/>
      <path id="パス_90" data-name="パス 90" d="M0,2.11,37.262,0l.183,3.166L1.877,5.183A2.059,2.059,0,0,1,.5,6.111Z" transform="translate(570.912 70.132)" fill="#e06f22"/>
      <path id="パス_91" data-name="パス 91" d="M32.452,0l1.436,2.425L5.849,18.79l.007.089,29.7,13.088-1.15,2.572L.011,19.252,0,19.073Z" transform="translate(645.228 51.464)" fill="#e06f22"/>
      <path id="パス_92" data-name="パス 92" d="M0,2.529,44.623,0l.1,1.787L.1,4.313Z" transform="translate(3.643 135.565)" fill="#e06f22"/>
      <path id="パス_93" data-name="パス 93" d="M24.99,0,15.158,20.029l.827,14.593-3.7.211-.824-14.5L0,1.415l4.241-.24L9.51,10.412c1.44,2.472,2.633,4.6,3.8,6.992l.133-.007c.81-2.328,1.838-4.714,3.027-7.425L20.843.233Z" transform="translate(49.282 139.376)" fill="#e06f22"/>
      <path id="パス_94" data-name="パス 94" d="M23.561,22.53l-3.123.176L10.7,3.335l-.133.007L3.08,23.687,0,23.862,9.044.161,11.856,0Z" transform="translate(79.005 139.688)" fill="#e06f22"/>
      <path id="パス_95" data-name="パス 95" d="M24.991,0,15.158,20.033l.827,14.592-3.7.208-.824-14.5L0,1.415l4.241-.24L9.51,10.412c1.44,2.472,2.633,4.6,3.8,7l.132-.011c.81-2.328,1.838-4.714,3.027-7.422L20.843.236Z" transform="translate(105.159 136.21)" fill="#e06f22"/>
      <path id="パス_96" data-name="パス 96" d="M23.561,22.526l-3.123.176L10.7,3.331l-.132.011L3.08,23.687,0,23.859,9.044.158,11.856,0Z" transform="translate(134.881 136.525)" fill="#e06f22"/>
      <path id="パス_97" data-name="パス 97" d="M24.987,0,15.155,20.033l.827,14.592-3.7.208-.824-14.5L0,1.418l4.237-.24,5.269,9.234c1.44,2.471,2.633,4.6,3.8,7l.133-.007c.809-2.332,1.837-4.717,3.027-7.425L20.839.236Z" transform="translate(161.039 133.044)" fill="#e06f22"/>
      <path id="パス_98" data-name="パス 98" d="M23.561,22.526l-3.123.175L10.7,3.335l-.133.007L3.077,23.687,0,23.862,9.044.158,11.856,0Z" transform="translate(190.758 133.359)" fill="#e06f22"/>
      <path id="パス_99" data-name="パス 99" d="M24.99,0,15.158,20.033l.827,14.592-3.7.208-.824-14.5L0,1.415l4.241-.24L9.51,10.412c1.44,2.471,2.633,4.6,3.8,7l.133-.007c.81-2.332,1.837-4.717,3.027-7.425L20.843.236Z" transform="translate(227.31 129.29)" fill="#e06f22"/>
      <path id="パス_100" data-name="パス 100" d="M23.561,22.526l-3.123.175L10.7,3.334l-.132.007L3.08,23.687,0,23.862,9.044.157,11.856,0Z" transform="translate(257.033 129.605)" fill="#e06f22"/>
      <path id="パス_101" data-name="パス 101" d="M24.987,0,15.155,20.033l.828,14.592-3.7.208-.824-14.5L0,1.418l4.237-.24,5.269,9.234c1.44,2.471,2.633,4.6,3.8,7l.133-.007c.81-2.328,1.837-4.717,3.027-7.425L20.839.237Z" transform="translate(283.191 126.124)" fill="#e06f22"/>
      <path id="パス_102" data-name="パス 102" d="M23.561,22.526l-3.123.179L10.7,3.335l-.136.007L3.08,23.687,0,23.862,9.044.161,11.856,0Z" transform="translate(312.909 126.439)" fill="#e06f22"/>
      <path id="パス_103" data-name="パス 103" d="M24.987,0,15.155,20.03l.827,14.592-3.7.211-.824-14.5L0,1.415l4.237-.24,5.269,9.238c1.436,2.467,2.633,4.6,3.8,6.992l.132-.007c.81-2.328,1.838-4.717,3.027-7.425L20.839.233Z" transform="translate(339.067 122.961)" fill="#e06f22"/>
      <path id="パス_104" data-name="パス 104" d="M23.561,22.526l-3.123.179L10.7,3.335l-.132.007L3.08,23.687,0,23.863,9.044.161,11.856,0Z" transform="translate(368.786 123.273)" fill="#e06f22"/>
      <path id="パス_105" data-name="パス 105" d="M24.987,0,15.155,20.03l.828,14.593-3.7.211-.824-14.5L0,1.415l4.237-.24,5.269,9.238c1.436,2.472,2.633,4.6,3.8,6.992l.132-.007c.806-2.328,1.838-4.714,3.027-7.425L20.839.236Z" transform="translate(394.944 119.795)" fill="#e06f22"/>
      <path id="パス_106" data-name="パス 106" d="M23.561,22.526l-3.123.175L10.7,3.331l-.133.007L3.08,23.687,0,23.858,9.044.158,11.856,0Z" transform="translate(424.663 120.11)" fill="#e06f22"/>
      <path id="パス_107" data-name="パス 107" d="M24.987,0,15.155,20.033l.827,14.592-3.7.208-.824-14.5L0,1.418l4.237-.244,5.269,9.238c1.436,2.472,2.633,4.6,3.8,7l.133-.007c.806-2.332,1.837-4.717,3.027-7.425L20.839.237Z" transform="translate(450.821 116.628)" fill="#e06f22"/>
      <path id="パス_108" data-name="パス 108" d="M23.561,22.526l-3.123.176L10.7,3.335l-.133.007L3.077,23.687,0,23.862,9.044.158,11.852,0Z" transform="translate(480.539 116.943)" fill="#e06f22"/>
      <path id="パス_109" data-name="パス 109" d="M24.987,0,15.155,20.03l.827,14.592-3.7.211-.824-14.5L0,1.415l4.237-.24,5.269,9.238c1.436,2.468,2.633,4.6,3.8,6.992l.133-.007c.806-2.328,1.837-4.717,3.027-7.425L20.839.233Z" transform="translate(506.697 113.465)" fill="#e06f22"/>
      <path id="パス_110" data-name="パス 110" d="M23.561,22.526l-3.123.179L10.7,3.334l-.132.007L3.077,23.687,0,23.862,9.044.161,11.852,0Z" transform="translate(536.416 113.777)" fill="#e06f22"/>
      <path id="パス_111" data-name="パス 111" d="M24.991,0,15.158,20.03l.824,14.593-3.7.211-.824-14.5L0,1.415l4.241-.24L9.51,10.412c1.436,2.471,2.633,4.6,3.8,6.992l.136-.007c.806-2.328,1.838-4.714,3.027-7.425L20.843.233Z" transform="translate(562.57 110.299)" fill="#e06f22"/>
      <path id="パス_112" data-name="パス 112" d="M23.561,22.53l-3.123.175L10.7,3.335l-.132.007L3.077,23.69,0,23.862,9.044.161,11.852,0Z" transform="translate(592.292 110.611)" fill="#e06f22"/>
      <path id="パス_113" data-name="パス 113" d="M24.987,0,15.155,20.033l.827,14.592-3.7.208-.824-14.5L0,1.415l4.237-.24,5.269,9.238c1.44,2.472,2.633,4.6,3.8,7l.132-.011c.81-2.328,1.837-4.714,3.027-7.422L20.839.237Z" transform="translate(618.451 107.133)" fill="#e06f22"/>
      <path id="パス_114" data-name="パス 114" d="M0,2.529,44.626,0l.1,1.784L.1,4.313Z" transform="translate(642.338 99.385)" fill="#e06f22"/>
    </g>
    <g id="圖層_3" data-name="圖層 3" transform="translate(72.023 450.06)">
      <g id="グループ_122" data-name="グループ 122" transform="translate(0 0)">
        <g id="グループ_120" data-name="グループ 120" transform="translate(267.507)">
          <path id="パス_3299" data-name="パス 3299" d="M644.272,442.322V418.4H749.087c-7.828,25.226-14.353,41.752-23.486,59.15,16.092,22.47,26.676,40.157,37.4,62.193H731.547A229.91,229.91,0,0,0,712.119,502.2c-13.772,24.935-32.909,37.4-59.584,39.143H634.268v-24.5H643.4c22.037.144,33.344-5.365,44.073-21.457,7.1-10,18.267-33.2,25.515-53.061Z" transform="translate(-634.268 -414.923)" fill="#6cd2ea" stroke="#6cd2ea" stroke-miterlimit="10" stroke-width="2.835"/>
          <path id="パス_3300" data-name="パス 3300" d="M769.615,484.731l48.856-.579-1.448-22.617-38.709.581V439.645l37.259-.58L813.977,415h25.951l1.595,23.776,44.507-.725v22.47l-43.058.581,1.45,22.76,49.436-.579v23.775l-47.841.581,2.32,33.053h-25.95l-2.32-32.764-50.452.58Z" transform="translate(-631.185 -415)" fill="#6cd2ea" stroke="#6cd2ea" stroke-miterlimit="10" stroke-width="2.835"/>
          <path id="パス_3301" data-name="パス 3301" d="M1018.475,466.185v24.646H899.743V466.185Z" transform="translate(-628.221 -413.834)" fill="#6cd2ea" stroke="#6cd2ea" stroke-miterlimit="10" stroke-width="2.835"/>
        </g>
        <path id="パス_3302" data-name="パス 3302" d="M724.582,599.623v24.646H562.137V599.623Z" transform="translate(-368.404 -410.794)" fill="#6cd2ea" stroke="#6cd2ea" stroke-miterlimit="10" stroke-width="2.835"/>
        <path id="パス_3303" data-name="パス 3303" d="M784.669,549.036v38.708c33.778,8.118,46.1,11.6,67.412,18.991v26.82c-19.426-7.1-37.694-12.468-67.412-19.716v63.643H758.138V549.036Z" transform="translate(-363.939 -411.947)" fill="#6cd2ea" stroke="#6cd2ea" stroke-miterlimit="10" stroke-width="2.835"/>
        <path id="パス_3304" data-name="パス 3304" d="M1021.012,548.161v23.051c0,12.613-3.48,15.513-18.556,15.947v4.93h17.106v17.976h-17.106v5.8h20.151v18.7H979.549c2.465,4.783,3.625,6.089,9.424,10.583a36.506,36.506,0,0,0,3.624-7.1h24.791a151.239,151.239,0,0,1-9.859,16.238c6.524,1.45,7.1,1.594,16.963,1.884v22.617c-16.672-.145-30.445-4.2-45.087-12.9v9.278c-14.062,1.45-31.6,2.61-64.369,4.2V657.617c6.669-.29,7.828-.29,14.5-.724V634.566h-8.407c-2.465,21.745-10.584,32.764-30.155,40.447V646.745c7.248-4.639,8.843-9.569,8.988-28.125V548.161ZM995.931,571.5v-6.378H922.285V571.5Zm-55.525,44.362v-5.8H926.2V592.089h14.207v-4.93H922.285v28.7Zm26.675,38.564c-6.233-7.395-8.7-11.164-12.612-19.861h-2.61v21.021Zm12.9-62.338v-4.93H961.572v4.93Zm0,23.775v-5.8H961.572v5.8Z" transform="translate(-360.914 -411.967)" fill="#6cd2ea"/>
        <g id="グループ_121" data-name="グループ 121" transform="translate(0 3.999)">
          <path id="パス_3305" data-name="パス 3305" d="M372.719,418.91H621.706v67.046c.914,50.591-28.037,78.933-82.589,80.152H517.174c-1.219,46.324-5.485,62.171-21.028,81.675-16.153,19.2-39.314,29.257-66.438,28.952H373.023V627.365h38.705c40.838.3,50.895-10.057,50.895-52.722v-57.6h74.056c23.771-.913,32.609-9.751,32.914-32.913v-13.41H372.719Z" transform="translate(-372.719 -418.91)" fill="#6cd2ea"/>
        </g>
        <text id="ASCII_ART" data-name="ASCII ART" transform="translate(540.071 104.55)" fill="#15285e" font-size="23" font-family="Helvetica"><tspan x="0" y="0">ASCII ART</tspan></text>
        <text id="_EXHIBITION" data-name=" EXHIBITION" transform="translate(534.539 127.113)" fill="#15285e" font-size="20" font-family="Helvetica"><tspan x="0" y="0" xml:space="preserve"> EXHIBITION</tspan></text>
      </g>
    </g>
    <g id="グループ_197" data-name="グループ 197" transform="translate(64.128 312.663)">
      <g id="グループ_194" data-name="グループ 194" transform="translate(0 30.805)">
        <g id="グループ_8" data-name="グループ 8">
          <g id="グループ_7" data-name="グループ 7">
            <path id="パス_122" data-name="パス 122" d="M155.487,626.82v8.116H144.91v-1.727h8.311V626.82Z" transform="translate(98.342 -546.261)" fill="#e06f22"/>
            <rect id="長方形_4" data-name="長方形 4" width="2.267" height="14.484" transform="translate(251.562 63.182)" fill="#e06f22"/>
            <rect id="長方形_5" data-name="長方形 5" width="2.267" height="14.506" transform="translate(251.562 45.784)" fill="#e06f22"/>
            <rect id="長方形_6" data-name="長方形 6" width="2.267" height="14.484" transform="translate(251.562 28.407)" fill="#e06f22"/>
            <rect id="長方形_7" data-name="長方形 7" width="2.267" height="14.506" transform="translate(251.562 11.009)" fill="#e06f22"/>
            <path id="パス_123" data-name="パス 123" d="M155.487,589.5v8.116h-2.267v-6.368H144.91V589.5Z" transform="translate(98.342 -589.5)" fill="#e06f22"/>
            <path id="パス_124" data-name="パス 124" d="M179.926,669.12v6.389h-8.311v1.727h-.475v-1.727H162.83V669.12h-2.267v-2.893h2.267V651.743h-2.267v-2.893h2.267v-8.116H152.253v1.727H151.8v-1.727H132.912v1.727h-.475v-1.727h-8.311v-6.389H121.86v-2.893h2.267V616.968H121.86v-2.892h2.267V599.57H121.86v-2.892h2.267V590.31h55.8v78.81Zm-17.1-44.035v-8.116h-2.267v6.368h-8.311v1.748Zm0-11.009V605.96H152.253v1.727h8.311v6.39ZM151.8,625.085v-1.748h-8.311v-6.368h-2.267v8.116Zm0-17.4V605.96H141.223v8.116h2.267v-6.39Z" transform="translate(71.636 -588.561)" fill="#fff"/>
            <path id="パス_125" data-name="パス 125" d="M150.367,633.209v1.727H139.79V626.82h2.267v6.389Z" transform="translate(92.41 -546.261)" fill="#e06f22"/>
            <rect id="長方形_8" data-name="長方形 8" width="18.888" height="1.748" transform="translate(223.889)" fill="#e06f22"/>
            <rect id="長方形_9" data-name="長方形 9" width="2.267" height="14.484" transform="translate(232.2 63.182)" fill="#e06f22"/>
            <path id="パス_126" data-name="パス 126" d="M146.517,613.67v8.116h-2.267V615.4H135.94V613.67Z" transform="translate(87.949 -561.497)" fill="#e06f22"/>
            <path id="パス_127" data-name="パス 127" d="M146.517,602.66v8.116H135.94v-1.748h8.311V602.66Z" transform="translate(87.949 -574.253)" fill="#e06f22"/>
            <path id="パス_128" data-name="パス 128" d="M146.517,597.56v8.116h-2.267v-6.39H135.94V597.56Z" transform="translate(87.949 -580.162)" fill="#e06f22"/>
            <rect id="長方形_10" data-name="長方形 10" width="18.888" height="1.727" transform="translate(204.548 52.173)" fill="#e06f22"/>
            <path id="パス_129" data-name="パス 129" d="M141.407,609.028v1.748H130.83V602.66H133.1v6.368Z" transform="translate(82.029 -574.253)" fill="#e06f22"/>
            <path id="パス_130" data-name="パス 130" d="M141.407,597.56v1.727H133.1v6.39H130.83V597.56Z" transform="translate(82.029 -580.162)" fill="#e06f22"/>
            <rect id="長方形_11" data-name="長方形 11" width="18.888" height="1.748" transform="translate(204.548)" fill="#e06f22"/>
            <path id="パス_131" data-name="パス 131" d="M132.437,617.1v1.727H121.86V610.71h2.267V617.1Z" transform="translate(71.636 -564.926)" fill="#e06f22"/>
            <path id="パス_132" data-name="パス 132" d="M132.437,589.5v1.748h-8.311v6.368H121.86V589.5Z" transform="translate(71.636 -589.5)" fill="#e06f22"/>
            <rect id="長方形_12" data-name="長方形 12" width="2.267" height="14.484" transform="translate(193.496 28.407)" fill="#e06f22"/>
            <rect id="長方形_13" data-name="長方形 13" width="2.267" height="14.506" transform="translate(193.496 11.009)" fill="#e06f22"/>
            <path id="パス_133" data-name="パス 133" d="M119.627,626.82v8.116H109.05v-1.727h8.311V626.82Z" transform="translate(56.794 -546.261)" fill="#e06f22"/>
            <rect id="長方形_14" data-name="長方形 14" width="2.267" height="14.484" transform="translate(174.155 63.182)" fill="#e06f22"/>
            <rect id="長方形_15" data-name="長方形 15" width="2.267" height="14.506" transform="translate(174.155 45.784)" fill="#e06f22"/>
            <rect id="長方形_16" data-name="長方形 16" width="2.267" height="14.484" transform="translate(174.155 28.407)" fill="#e06f22"/>
            <rect id="長方形_17" data-name="長方形 17" width="2.267" height="14.506" transform="translate(174.155 11.009)" fill="#e06f22"/>
            <path id="パス_134" data-name="パス 134" d="M119.627,589.5v8.116h-2.267v-6.368H109.05V589.5Z" transform="translate(56.794 -589.5)" fill="#e06f22"/>
            <path id="パス_135" data-name="パス 135" d="M123.281,669.12v6.389H114.97v1.727H114.5v-1.727h-8.289V669.12H103.94v-2.893h2.267V651.743H103.94v-2.893h2.267V634.345H103.94v-2.893h2.267V616.968H103.94v-2.892h2.267V599.57H103.94v-2.892h2.267V590.31h17.074v78.81Z" transform="translate(50.874 -588.561)" fill="#fff"/>
            <path id="パス_136" data-name="パス 136" d="M114.5,633.209v1.727H103.94V626.82h2.267v6.389Z" transform="translate(50.874 -546.261)" fill="#e06f22"/>
            <path id="パス_137" data-name="パス 137" d="M114.5,589.5v1.748h-8.289v6.368H103.94V589.5Z" transform="translate(50.874 -589.5)" fill="#e06f22"/>
            <rect id="長方形_18" data-name="長方形 18" width="2.267" height="14.484" transform="translate(154.814 63.182)" fill="#e06f22"/>
            <rect id="長方形_19" data-name="長方形 19" width="2.267" height="14.506" transform="translate(154.814 45.784)" fill="#e06f22"/>
            <rect id="長方形_20" data-name="長方形 20" width="2.267" height="14.484" transform="translate(154.814 28.407)" fill="#e06f22"/>
            <rect id="長方形_21" data-name="長方形 21" width="2.267" height="14.506" transform="translate(154.814 11.009)" fill="#e06f22"/>
            <path id="パス_138" data-name="パス 138" d="M101.7,626.82v8.116H91.12v-1.727h8.311V626.82Z" transform="translate(36.021 -546.261)" fill="#e06f22"/>
            <rect id="長方形_22" data-name="長方形 22" width="2.267" height="14.484" transform="translate(135.452 63.182)" fill="#e06f22"/>
            <rect id="長方形_23" data-name="長方形 23" width="2.267" height="14.506" transform="translate(135.452 45.784)" fill="#e06f22"/>
            <rect id="長方形_24" data-name="長方形 24" width="2.267" height="14.484" transform="translate(135.452 28.407)" fill="#e06f22"/>
            <rect id="長方形_25" data-name="長方形 25" width="2.267" height="14.506" transform="translate(135.452 11.009)" fill="#e06f22"/>
            <path id="パス_139" data-name="パス 139" d="M101.7,589.5v8.116H99.431v-6.368H91.12V589.5Z" transform="translate(36.021 -589.5)" fill="#e06f22"/>
            <path id="パス_140" data-name="パス 140" d="M126.124,669.12v6.389h-8.311v1.727h-.453v-1.727H98.473v1.727H98v-1.727H79.11v1.727h-.453v-1.727H70.347V669.12H68.08v-2.893h2.267V651.743H68.08v-2.893h2.267V634.345H68.08v-2.893h2.267V616.968H68.08v-2.892h2.267V599.57H68.08v-2.892h2.267V590.31h55.778v78.81Zm-17.074-9.26v-8.116h-2.267v-2.893h2.267V634.345h-2.267v-2.893h2.267V616.968h-2.267v-2.892h2.267V605.96H98.473v1.727H98V605.96H87.421v53.9H109.05Z" transform="translate(9.327 -588.561)" fill="#fff"/>
            <rect id="長方形_26" data-name="長方形 26" width="18.888" height="1.727" transform="translate(107.8 86.948)" fill="#e06f22"/>
            <rect id="長方形_27" data-name="長方形 27" width="18.888" height="1.748" transform="translate(107.8)" fill="#e06f22"/>
            <path id="パス_141" data-name="パス 141" d="M92.737,618.77v8.116H82.16v-1.748h8.311V618.77Z" transform="translate(25.64 -555.588)" fill="#e06f22"/>
            <rect id="長方形_28" data-name="長方形 28" width="2.267" height="14.506" transform="translate(116.111 45.784)" fill="#e06f22"/>
            <rect id="長方形_29" data-name="長方形 29" width="2.267" height="14.484" transform="translate(116.111 28.407)" fill="#e06f22"/>
            <path id="パス_142" data-name="パス 142" d="M92.737,597.56v8.116H90.471v-6.39H82.16V597.56Z" transform="translate(25.64 -580.162)" fill="#e06f22"/>
            <rect id="長方形_30" data-name="長方形 30" width="18.888" height="1.727" transform="translate(88.437 86.948)" fill="#e06f22"/>
            <path id="パス_143" data-name="パス 143" d="M87.617,625.138v1.748H77.04V618.77h2.267v6.368Z" transform="translate(19.708 -555.588)" fill="#e06f22"/>
            <path id="パス_144" data-name="パス 144" d="M87.617,597.56v1.727H79.307v6.39H77.04V597.56Z" transform="translate(19.708 -580.162)" fill="#e06f22"/>
            <rect id="長方形_31" data-name="長方形 31" width="18.888" height="1.748" transform="translate(88.437)" fill="#e06f22"/>
            <rect id="長方形_32" data-name="長方形 32" width="2.267" height="14.506" transform="translate(96.748 45.784)" fill="#e06f22"/>
            <rect id="長方形_33" data-name="長方形 33" width="2.267" height="14.484" transform="translate(96.748 28.407)" fill="#e06f22"/>
            <path id="パス_145" data-name="パス 145" d="M78.657,633.209v1.727H68.08V626.82h2.267v6.389Z" transform="translate(9.327 -546.261)" fill="#e06f22"/>
            <path id="パス_146" data-name="パス 146" d="M78.657,589.5v1.748H70.347v6.368H68.08V589.5Z" transform="translate(9.327 -589.5)" fill="#e06f22"/>
            <rect id="長方形_34" data-name="長方形 34" width="2.267" height="14.484" transform="translate(77.407 63.182)" fill="#e06f22"/>
            <rect id="長方形_35" data-name="長方形 35" width="2.267" height="14.506" transform="translate(77.407 45.784)" fill="#e06f22"/>
            <rect id="長方形_36" data-name="長方形 36" width="2.267" height="14.484" transform="translate(77.407 28.407)" fill="#e06f22"/>
            <rect id="長方形_37" data-name="長方形 37" width="2.267" height="14.506" transform="translate(77.407 11.009)" fill="#e06f22"/>
            <path id="パス_147" data-name="パス 147" d="M65.837,626.82v8.116H55.26v-1.727h8.311V626.82Z" transform="translate(-5.526 -546.261)" fill="#e06f22"/>
            <path id="パス_148" data-name="パス 148" d="M65.837,621.72v8.116H63.571v-6.368H55.26V621.72Z" transform="translate(-5.526 -552.17)" fill="#e06f22"/>
            <path id="パス_149" data-name="パス 149" d="M65.837,610.71v8.116H55.26V617.1h8.311V610.71Z" transform="translate(-5.526 -564.926)" fill="#e06f22"/>
            <rect id="長方形_38" data-name="長方形 38" width="2.267" height="14.484" transform="translate(58.044 28.407)" fill="#e06f22"/>
            <rect id="長方形_39" data-name="長方形 39" width="2.267" height="14.506" transform="translate(58.044 11.009)" fill="#e06f22"/>
            <path id="パス_150" data-name="パス 150" d="M65.837,589.5v8.116H63.571v-6.368H55.26V589.5Z" transform="translate(-5.526 -589.5)" fill="#e06f22"/>
            <path id="パス_151" data-name="パス 151" d="M90.264,669.12v6.389H81.954v1.727H81.5v-1.727H62.613v1.727h-.475v-1.727H43.25v1.727H42.8v-1.727H34.487V669.12H32.22v-2.893h2.267V651.743H32.22v-2.893h2.267V634.345H32.22v-2.893h2.267v-6.368h38.7v-8.116H70.924v-2.892H73.19V605.96H62.613v1.727h-.475V605.96H43.25v1.727H42.8V605.96H34.487V599.57H32.22v-2.892h2.267V590.31H90.264v50.425H81.954v1.727H81.5v-1.727H62.613v1.727h-.475v-1.727H51.561V659.86h38.7v9.26Z" transform="translate(-32.22 -588.561)" fill="#fff"/>
            <rect id="長方形_40" data-name="長方形 40" width="18.888" height="1.727" transform="translate(30.393 86.948)" fill="#e06f22"/>
            <rect id="長方形_41" data-name="長方形 41" width="18.888" height="1.748" transform="translate(30.393 69.55)" fill="#e06f22"/>
            <rect id="長方形_42" data-name="長方形 42" width="18.888" height="1.727" transform="translate(30.393 52.173)" fill="#e06f22"/>
            <rect id="長方形_43" data-name="長方形 43" width="18.888" height="1.748" transform="translate(30.393)" fill="#e06f22"/>
            <path id="パス_152" data-name="パス 152" d="M56.877,602.66v8.116H46.3v-1.748h8.311V602.66Z" transform="translate(-15.907 -574.253)" fill="#e06f22"/>
            <path id="パス_153" data-name="パス 153" d="M56.877,597.56v8.116H54.611v-6.39H46.3V597.56Z" transform="translate(-15.907 -580.162)" fill="#e06f22"/>
            <rect id="長方形_44" data-name="長方形 44" width="18.888" height="1.727" transform="translate(11.03 86.948)" fill="#e06f22"/>
            <path id="パス_154" data-name="パス 154" d="M51.757,625.138v1.748H41.18V618.77h2.267v6.368Z" transform="translate(-21.839 -555.588)" fill="#e06f22"/>
            <path id="パス_155" data-name="パス 155" d="M51.757,613.67V615.4H43.447v6.39H41.18V613.67Z" transform="translate(-21.839 -561.497)" fill="#e06f22"/>
            <rect id="長方形_45" data-name="長方形 45" width="18.888" height="1.748" transform="translate(11.03 34.775)" fill="#e06f22"/>
            <rect id="長方形_46" data-name="長方形 46" width="18.888" height="1.727" transform="translate(11.03 17.398)" fill="#e06f22"/>
            <rect id="長方形_47" data-name="長方形 47" width="18.888" height="1.748" transform="translate(11.03)" fill="#e06f22"/>
            <path id="パス_156" data-name="パス 156" d="M42.8,633.209v1.727H32.22V626.82h2.267v6.389Z" transform="translate(-32.22 -546.261)" fill="#e06f22"/>
            <path id="パス_157" data-name="パス 157" d="M42.8,605.61v1.748H34.487v6.368H32.22V605.61Z" transform="translate(-32.22 -570.835)" fill="#e06f22"/>
            <path id="パス_158" data-name="パス 158" d="M42.8,600.99v1.727H32.22V594.6h2.267v6.39Z" transform="translate(-32.22 -583.591)" fill="#e06f22"/>
            <path id="パス_159" data-name="パス 159" d="M42.8,589.5v1.748H34.487v6.368H32.22V589.5Z" transform="translate(-32.22 -589.5)" fill="#e06f22"/>
            <rect id="長方形_48" data-name="長方形 48" width="2.267" height="14.484" transform="translate(0 63.182)" fill="#e06f22"/>
            <rect id="長方形_49" data-name="長方形 49" width="2.267" height="14.506" transform="translate(0 45.784)" fill="#e06f22"/>
          </g>
        </g>
      </g>
      <g id="グループ_195" data-name="グループ 195" transform="translate(263.348 0)">
        <rect id="長方形_1" data-name="長方形 1" width="21.574" height="26.151" transform="translate(366.961 99.078)" fill="#fff"/>
        <rect id="長方形_2" data-name="長方形 2" width="21.182" height="26.151" transform="translate(20.136 99.209)" fill="#fff"/>
        <rect id="長方形_3" data-name="長方形 3" width="407.953" height="71.915" transform="translate(0 29.909)" fill="#fff"/>
        <g id="グループ_1" data-name="グループ 1" transform="translate(0.216)">
          <path id="パス_1" data-name="パス 1" d="M137.886,631.456l-3.49-6.832h-.021l-3.488,6.832-.593-.306,4.072-7.921h.042l4.07,7.921Z" transform="translate(137.219 -623.229)" fill="#f9d332" stroke="#f9d332" stroke-miterlimit="10" stroke-width="0.283"/>
          <path id="パス_2" data-name="パス 2" d="M129.886,631.456l-3.49-6.832h-.021l-3.488,6.832-.593-.306,4.072-7.921h.042l4.072,7.921Z" transform="translate(132.178 -623.229)" fill="#f9d332" stroke="#f9d332" stroke-miterlimit="10" stroke-width="0.283"/>
          <path id="パス_3" data-name="パス 3" d="M137.1,640.661a7.981,7.981,0,0,0,1.511-4.843,7.885,7.885,0,0,0-1.511-4.906h.719a8.375,8.375,0,0,1,0,9.75Z" transform="translate(141.508 -618.388)" fill="#f9d332" stroke="#f9d332" stroke-miterlimit="10" stroke-width="0.283"/>
          <path id="パス_4" data-name="パス 4" d="M137.086,632.1v.74l-4.768,2.443v.021l4.768,2.421v.74l-5.508-2.875v-.6Z" transform="translate(138.029 -617.64)" fill="#f9d332" stroke="#f9d332" stroke-miterlimit="10" stroke-width="0.283"/>
          <path id="パス_5" data-name="パス 5" d="M130.254,637.952a6.459,6.459,0,0,1-2.347.455c-1.746,0-3.259-.528-3.259-1.713,0-.825.931-1.384,2.189-1.459v-.021c-.931-.137-1.808-.677-1.808-1.374,0-.994,1.195-1.449,2.527-1.449a5.718,5.718,0,0,1,2.359.476l-.191.549a5.647,5.647,0,0,0-2.029-.4c-1.048,0-1.788.328-1.788.919,0,.413.624,1.079,2.6,1.079h.391v.582h-.592c-1.322,0-2.76.222-2.76,1.078,0,.646.931,1.1,2.326,1.1A6.2,6.2,0,0,0,130,637.35Z" transform="translate(133.662 -617.457)" fill="#f9d332" stroke="#f9d332" stroke-miterlimit="10" stroke-width="0.283"/>
          <path id="パス_6" data-name="パス 6" d="M117.686,638.463v-.74l4.739-2.421v-.021l-4.739-2.443v-.74l5.51,2.9v.571Z" transform="translate(129.275 -617.64)" fill="#f9d332" stroke="#f9d332" stroke-miterlimit="10" stroke-width="0.283"/>
          <path id="パス_7" data-name="パス 7" d="M117.936,630.911a8.611,8.611,0,0,0,0,9.75h-.721a8.425,8.425,0,0,1,0-9.75Z" transform="translate(128 -618.388)" fill="#f9d332" stroke="#f9d332" stroke-miterlimit="10" stroke-width="0.283"/>
          <path id="パス_8" data-name="パス 8" d="M346.066,650.326h-2.324v-8.517h-8.517v-2.324h10.841Z" transform="translate(61.692 -609.595)" fill="#f9d332"/>
          <path id="パス_9" data-name="パス 9" d="M339.776,641.809H320.417v-2.324h19.359Z" transform="translate(57.138 -609.595)" fill="#f9d332"/>
          <path id="パス_10" data-name="パス 10" d="M131.082,638.4a4.758,4.758,0,1,1-4.76,4.758A4.752,4.752,0,0,1,131.082,638.4Zm0,.728a4.03,4.03,0,1,0,4.028,4.03A4.035,4.035,0,0,0,131.082,639.133Z" transform="translate(134.717 -613.667)" fill="#f9d332" stroke="#f9d332" stroke-miterlimit="10" stroke-width="0.283"/>
          <path id="パス_11" data-name="パス 11" d="M124.592,638.4a4.758,4.758,0,1,1-4.758,4.758A4.752,4.752,0,0,1,124.592,638.4Zm0,.728a4.03,4.03,0,1,0,4.03,4.03A4.035,4.035,0,0,0,124.592,639.133Z" transform="translate(130.629 -613.667)" fill="#f9d332" stroke="#f9d332" stroke-miterlimit="10" stroke-width="0.283"/>
          <path id="パス_12" data-name="パス 12" d="M326.58,641.809H302v-2.324h24.58Z" transform="translate(51.474 -609.595)" fill="#f9d332"/>
          <path id="パス_13" data-name="パス 13" d="M306.545,641.809H287.186v-2.324h19.359Z" transform="translate(46.918 -609.595)" fill="#f9d332"/>
          <path id="パス_14" data-name="パス 14" d="M295.737,641.809H276.378v-2.324h19.359Z" transform="translate(43.594 -609.595)" fill="#f9d332"/>
          <path id="パス_15" data-name="パス 15" d="M280.929,641.809H261.57v-2.324h19.359Z" transform="translate(39.04 -609.595)" fill="#f9d332"/>
          <path id="パス_16" data-name="パス 16" d="M89.121,641.809H69.762v-2.324H89.121Z" transform="translate(-19.949 -609.595)" fill="#f9d332"/>
          <path id="パス_17" data-name="パス 17" d="M74.313,641.809H54.954v-2.324H74.313Z" transform="translate(-24.503 -609.595)" fill="#f9d332"/>
          <path id="パス_18" data-name="パス 18" d="M59.505,641.809H40.146v-2.324H59.505Z" transform="translate(-29.057 -609.595)" fill="#f9d332"/>
          <path id="パス_19" data-name="パス 19" d="M34.368,650.326H32.045V639.485H42.887v2.324H34.368Z" transform="translate(-31.548 -609.595)" fill="#f9d332"/>
          <path id="パス_20" data-name="パス 20" d="M266.353,641.809h-19.36v-2.324h19.36Z" transform="translate(34.557 -609.595)" fill="#f9d332"/>
          <path id="パス_21" data-name="パス 21" d="M251.545,641.809H232.186v-2.324h19.359Z" transform="translate(-8.851 -609.595)" fill="#f9d332"/>
          <path id="パス_22" data-name="パス 22" d="M236.737,641.809H217.378v-2.324h19.359Z" transform="translate(-13.405 -609.595)" fill="#f9d332"/>
          <path id="パス_23" data-name="パス 23" d="M192.93,641.809H173.57v-2.324H192.93Z" transform="translate(-26.878 -609.595)" fill="#f9d332"/>
          <path id="パス_24" data-name="パス 24" d="M178.352,641.809H158.993v-2.324h19.359Z" transform="translate(-31.361 -609.595)" fill="#f9d332"/>
          <path id="パス_25" data-name="パス 25" d="M163.545,641.809H144.186v-2.324h19.359Z" transform="translate(-35.915 -609.595)" fill="#f9d332"/>
          <path id="パス_26" data-name="パス 26" d="M118.737,641.809H99.378v-2.324h19.359Z" transform="translate(-10.84 -609.595)" fill="#f9d332"/>
          <path id="パス_27" data-name="パス 27" d="M103.929,641.809H84.57v-2.324h19.359Z" transform="translate(-15.395 -609.595)" fill="#f9d332"/>
          <path id="パス_28" data-name="パス 28" d="M345.992,686.279V697.12H335.151V694.8h8.517v-8.517Z" transform="translate(61.669 -595.204)" fill="#f9d332"/>
          <path id="パス_29" data-name="パス 29" d="M339.7,695.116h-8.519v8.517H328.86v-8.517h-8.517v-2.323H339.7Z" transform="translate(57.115 -593.201)" fill="#f9d332"/>
          <path id="パス_30" data-name="パス 30" d="M324.894,695.116h-8.519v8.517h-2.322v-8.517h-8.519v-2.323h19.359Z" transform="translate(52.561 -593.201)" fill="#f9d332"/>
          <path id="パス_31" data-name="パス 31" d="M310.086,695.116H290.727v-2.323h19.359Z" transform="translate(48.007 -593.201)" fill="#f9d332"/>
          <path id="パス_32" data-name="パス 32" d="M295.278,695.116H275.919v-2.323h19.359Z" transform="translate(43.453 -593.201)" fill="#f9d332"/>
          <path id="パス_33" data-name="パス 33" d="M280.472,695.116h-19.36v-2.323h19.36Z" transform="translate(38.899 -593.201)" fill="#f9d332"/>
          <path id="パス_34" data-name="パス 34" d="M265.663,695.116H246.3v-2.323h19.359Z" transform="translate(34.345 -593.201)" fill="#f9d332"/>
          <path id="パス_35" data-name="パス 35" d="M250.855,695.116H231.5v-2.323h19.359Z" transform="translate(29.791 -593.201)" fill="#f9d332"/>
          <path id="パス_36" data-name="パス 36" d="M331.184,704.048v10.841H320.343v-2.322h8.517v-8.519Z" transform="translate(57.115 -589.74)" fill="#f9d332"/>
          <path id="パス_37" data-name="パス 37" d="M314.372,704.048v8.519h8.519v2.322H312.05V704.048Z" transform="translate(54.565 -589.74)" fill="#f9d332"/>
          <path id="パス_38" data-name="パス 38" d="M103.741,695.116H84.382v-2.323h19.359Z" transform="translate(-15.452 -593.201)" fill="#f9d332"/>
          <path id="パス_39" data-name="パス 39" d="M88.933,695.116H69.574v-2.323H88.933Z" transform="translate(-20.006 -593.201)" fill="#f9d332"/>
          <path id="パス_40" data-name="パス 40" d="M74.125,695.116H65.608v8.517H63.285v-8.517H54.766v-2.323H74.125Z" transform="translate(-24.561 -593.201)" fill="#f9d332"/>
          <path id="パス_41" data-name="パス 41" d="M59.318,695.116H50.8v8.517H48.476v-8.517H39.959v-2.323H59.318Z" transform="translate(-29.114 -593.201)" fill="#f9d332"/>
          <path id="パス_42" data-name="パス 42" d="M33.989,686.279V694.8h8.519v2.323H31.665V686.279Z" transform="translate(-31.665 -595.204)" fill="#f9d332"/>
          <path id="パス_43" data-name="パス 43" d="M65.608,704.048v10.841H54.766v-2.322h8.519v-8.519Z" transform="translate(-24.561 -589.74)" fill="#f9d332"/>
          <path id="パス_44" data-name="パス 44" d="M48.8,704.048v8.519h8.519v2.322H46.473V704.048Z" transform="translate(-27.111 -589.74)" fill="#f9d332"/>
          <path id="パス_45" data-name="パス 45" d="M235.869,695.116H216.51v-2.323h19.359Z" transform="translate(25.182 -593.201)" fill="#f9d332"/>
          <path id="パス_46" data-name="パス 46" d="M221.061,695.116H201.7v-2.323h19.359Z" transform="translate(20.628 -593.201)" fill="#f9d332"/>
          <path id="パス_47" data-name="パス 47" d="M206.253,695.116H186.894v-2.323h19.359Z" transform="translate(16.074 -593.201)" fill="#f9d332"/>
          <path id="パス_48" data-name="パス 48" d="M191.445,695.116H172.086v-2.323h19.359Z" transform="translate(11.52 -593.201)" fill="#f9d332"/>
          <path id="パス_49" data-name="パス 49" d="M176.869,695.116H157.51v-2.323h19.359Z" transform="translate(7.037 -593.201)" fill="#f9d332"/>
          <path id="パス_50" data-name="パス 50" d="M162.061,695.116H142.7v-2.323h19.359Z" transform="translate(2.483 -593.201)" fill="#f9d332"/>
          <path id="パス_51" data-name="パス 51" d="M118.253,695.116H98.894v-2.323h19.359Z" transform="translate(-10.989 -593.201)" fill="#f9d332"/>
          <path id="パス_52" data-name="パス 52" d="M34.062,669.1H31.74V649.74h2.322Z" transform="translate(-31.642 -606.441)" fill="#f9d332"/>
          <path id="パス_53" data-name="パス 53" d="M33.989,686.868H31.665V667.509h2.323Z" transform="translate(-31.665 -600.977)" fill="#f9d332"/>
          <path id="パス_54" data-name="パス 54" d="M33.989,686.868H31.665V667.509h2.323Z" transform="translate(-31.665 -600.977)" fill="#f9d332"/>
          <path id="パス_55" data-name="パス 55" d="M344.062,669.1H341.74V649.74h2.322Z" transform="translate(63.696 -606.441)" fill="#f9d332"/>
          <path id="パス_56" data-name="パス 56" d="M343.988,686.868h-2.323V667.509h2.323Z" transform="translate(63.673 -600.977)" fill="#f9d332"/>
          <path id="パス_57" data-name="パス 57" d="M343.988,686.868h-2.323V667.509h2.323Z" transform="translate(63.673 -600.977)" fill="#f9d332"/>
          <path id="パス_58" data-name="パス 58" d="M133.253,695.116h-19.36v-2.323h19.36Z" transform="translate(-6.376 -593.201)" fill="#f9d332"/>
          <path id="パス_59" data-name="パス 59" d="M148.253,695.116H128.894v-2.323h19.359Z" transform="translate(-1.763 -593.201)" fill="#f9d332"/>
          <path id="パス_60" data-name="パス 60" d="M207.929,641.809H188.57v-2.324h19.359Z" transform="translate(-22.265 -609.595)" fill="#f9d332"/>
          <path id="パス_61" data-name="パス 61" d="M222.929,641.809H203.57v-2.324h19.359Z" transform="translate(-17.652 -609.595)" fill="#f9d332"/>
        </g>
      </g>
      <g id="グループ_196" data-name="グループ 196" transform="translate(282.991 45.772)">
        <text id="_07.06" data-name="07.06" transform="translate(0 35.732)" fill="#15285e" font-size="45" font-family="Helvetica-Bold, Helvetica" font-weight="700"><tspan x="0" y="0">07.06</tspan></text>
        <text id="SAT." transform="translate(126.249 34.66)" fill="#15285e" font-size="19" font-family="Helvetica"><tspan x="0" y="0">SAT.</tspan></text>
        <text id="SUN." transform="translate(330.826 35.107)" fill="#15285e" font-size="19" font-family="Helvetica" letter-spacing="-0.04em"><tspan x="0" y="0">SUN.</tspan></text>
        <text id="_09.08" data-name="09.08" transform="translate(204.441 35)" fill="#15285e" font-size="45" font-family="Helvetica-Bold, Helvetica" font-weight="700"><tspan x="0" y="0">09.08</tspan></text>
        <g id="グループ_11" data-name="グループ 11" transform="translate(180.991 22.867)">
          <path id="パス_160" data-name="パス 160" d="M179.72,667.469h12.033v3.8H179.72Z" transform="translate(-179.72 -667.469)" fill="#15285e"/>
        </g>
      </g>
    </g>
  </g>
</svg>
