<svg xmlns="http://www.w3.org/2000/svg" width="985.281" height="330.029" viewBox="0 0 985.281 330.029">
  <g id="typo" transform="translate(-346.719 -412.583)">
    <g id="date">
      <rect id="長方形_102" data-name="長方形 102" width="16" height="18" transform="translate(1301 699)" fill="#fff"/>
      <rect id="長方形_101" data-name="長方形 101" width="16" height="18" transform="translate(1064 699)" fill="#fff"/>
      <rect id="長方形_100" data-name="長方形 100" width="281" height="181" transform="translate(1051 518)" fill="#fff"/>
      <g id="bg">
        <path id="パス_2265" data-name="パス 2265" d="M1295.043,488.594l-4.886-9.565h-.03l-4.886,9.565-.829-.429,5.7-11.09h.06l5.7,11.09Z" fill="#f9d332"/>
        <path id="パス_2266" data-name="パス 2266" d="M1276.785,488.594l-4.886-9.565h-.03l-4.886,9.565-.829-.429,5.7-11.09h.059l5.7,11.09Z" fill="#f9d332"/>
        <path id="パス_2267" data-name="パス 2267" d="M1299.944,508.259a11.171,11.171,0,0,0,2.117-6.782,11.034,11.034,0,0,0-2.117-6.87h1.007a11.729,11.729,0,0,1,0,13.652Z" fill="#f9d332"/>
        <path id="パス_2268" data-name="パス 2268" d="M1295.057,497.317v1.036l-6.677,3.42v.03l6.677,3.391v1.036l-7.714-4.027v-.844Z" fill="#f9d332"/>
        <path id="パス_2269" data-name="パス 2269" d="M1279.376,505.771a9.081,9.081,0,0,1-3.286.637c-2.444,0-4.561-.741-4.561-2.4,0-1.155,1.3-1.939,3.065-2.043v-.029c-1.3-.193-2.532-.948-2.532-1.925,0-1.392,1.673-2.029,3.539-2.029a8.014,8.014,0,0,1,3.3.667l-.267.77a7.9,7.9,0,0,0-2.843-.563c-1.465,0-2.5.459-2.5,1.288,0,.577.874,1.51,3.642,1.51h.548v.815h-.829c-1.851,0-3.864.31-3.864,1.51,0,.9,1.3,1.54,3.257,1.54a8.66,8.66,0,0,0,2.976-.593Z" fill="#f9d332"/>
        <path id="パス_2270" data-name="パス 2270" d="M1255.64,506.23v-1.036l6.633-3.391v-.03l-6.633-3.42v-1.036l7.714,4.057v.8Z" fill="#f9d332"/>
        <path id="パス_2271" data-name="パス 2271" d="M1254.2,494.607a12.064,12.064,0,0,0,0,13.652H1253.2a11.794,11.794,0,0,1,0-13.652Z" fill="#f9d332"/>
        <path id="パス_2272" data-name="パス 2272" d="M1331.516,525.776h-1.777v-6.514h-6.514v-1.777h8.291Z" fill="#f9d332"/>
        <path id="パス_2273" data-name="パス 2273" d="M1323.223,519.262h-14.806v-1.777h14.806Z" fill="#f9d332"/>
        <path id="パス_2274" data-name="パス 2274" d="M1282.012,511.711a6.663,6.663,0,1,1-6.663,6.662A6.654,6.654,0,0,1,1282.012,511.711Zm0,1.021a5.642,5.642,0,1,0,5.641,5.641A5.649,5.649,0,0,0,1282.012,512.732Z" fill="#f9d332"/>
        <path id="パス_2275" data-name="パス 2275" d="M1267.2,511.711a6.663,6.663,0,1,1-6.662,6.662A6.654,6.654,0,0,1,1267.2,511.711Zm0,1.021a5.642,5.642,0,1,0,5.641,5.641A5.649,5.649,0,0,0,1267.2,512.732Z" fill="#f9d332"/>
        <path id="パス_2276" data-name="パス 2276" d="M1308.8,519.262H1290v-1.777h18.8Z" fill="#f9d332"/>
        <path id="パス_2277" data-name="パス 2277" d="M1259.992,519.262h-14.806v-1.777h14.806Z" fill="#f9d332"/>
        <path id="パス_2278" data-name="パス 2278" d="M1249.184,519.262h-14.806v-1.777h14.806Z" fill="#f9d332"/>
        <path id="パス_2279" data-name="パス 2279" d="M1234.376,519.262H1219.57v-1.777h14.806Z" fill="#f9d332"/>
        <path id="パス_2280" data-name="パス 2280" d="M1101.568,519.262h-14.806v-1.777h14.806Z" fill="#f9d332"/>
        <path id="パス_2281" data-name="パス 2281" d="M1086.76,519.262h-14.806v-1.777h14.806Z" fill="#f9d332"/>
        <path id="パス_2282" data-name="パス 2282" d="M1071.952,519.262h-14.806v-1.777h14.806Z" fill="#f9d332"/>
        <path id="パス_2283" data-name="パス 2283" d="M1050.822,525.776h-1.777v-8.291h8.292v1.777h-6.515Z" fill="#f9d332"/>
        <path id="パス_2284" data-name="パス 2284" d="M1331.516,543.545h-1.777v-14.8h1.777Z" fill="#f9d332"/>
        <path id="パス_2285" data-name="パス 2285" d="M1051,543.545h-1.777v-14.8H1051Z" fill="#f9d332"/>
        <path id="パス_2286" data-name="パス 2286" d="M1331.516,561.315h-1.777V546.509h1.777Z" fill="#f9d332"/>
        <path id="パス_2287" data-name="パス 2287" d="M1050.926,561.315h-1.777V546.509h1.777Z" fill="#f9d332"/>
        <path id="パス_2288" data-name="パス 2288" d="M1331.926,691.279v8.291h-8.292v-1.777h6.515v-6.514Z" fill="#f9d332"/>
        <path id="パス_2289" data-name="パス 2289" d="M1323.633,699.57h-6.515v6.514h-1.777V699.57h-6.514v-1.777h14.806Z" fill="#f9d332"/>
        <path id="パス_2290" data-name="パス 2290" d="M1308.825,699.57h-6.515v6.514h-1.777V699.57h-6.514v-1.777h14.806Z" fill="#f9d332"/>
        <path id="パス_2291" data-name="パス 2291" d="M1294.017,699.57h-14.806v-1.777h14.806Z" fill="#f9d332"/>
        <path id="パス_2292" data-name="パス 2292" d="M1279.209,699.57H1264.4v-1.777h14.806Z" fill="#f9d332"/>
        <path id="パス_2293" data-name="パス 2293" d="M1264.4,699.57h-14.806v-1.777H1264.4Z" fill="#f9d332"/>
        <path id="パス_2294" data-name="パス 2294" d="M1249.593,699.57h-14.806v-1.777h14.806Z" fill="#f9d332"/>
        <path id="パス_2295" data-name="パス 2295" d="M1234.786,699.57H1219.98v-1.777h14.806Z" fill="#f9d332"/>
        <path id="パス_2296" data-name="パス 2296" d="M1317.118,709.048v8.291h-8.291v-1.776h6.514v-6.515Z" fill="#f9d332"/>
        <path id="パス_2297" data-name="パス 2297" d="M1302.31,709.048v6.515h6.515v1.776h-8.292v-8.291Z" fill="#f9d332"/>
        <path id="パス_2298" data-name="パス 2298" d="M1116.672,699.57h-14.806v-1.777h14.806Z" fill="#f9d332"/>
        <path id="パス_2299" data-name="パス 2299" d="M1101.864,699.57h-14.806v-1.777h14.806Z" fill="#f9d332"/>
        <path id="パス_2300" data-name="パス 2300" d="M1087.056,699.57h-6.514v6.514h-1.777V699.57h-6.515v-1.777h14.806Z" fill="#f9d332"/>
        <path id="パス_2301" data-name="パス 2301" d="M1072.248,699.57h-6.514v6.514h-1.777V699.57h-6.515v-1.777h14.806Z" fill="#f9d332"/>
        <path id="パス_2302" data-name="パス 2302" d="M1050.926,691.279v6.514h6.514v1.777h-8.291v-8.291Z" fill="#f9d332"/>
        <path id="パス_2303" data-name="パス 2303" d="M1080.542,709.048v8.291h-8.292v-1.776h6.515v-6.515Z" fill="#f9d332"/>
        <path id="パス_2304" data-name="パス 2304" d="M1065.734,709.048v6.515h6.514v1.776h-8.291v-8.291Z" fill="#f9d332"/>
        <path id="パス_2305" data-name="パス 2305" d="M1219.8,519.262h-14.806v-1.777H1219.8Z" fill="#f9d332"/>
        <path id="パス_2306" data-name="パス 2306" d="M1204.992,519.262h-14.806v-1.777h14.806Z" fill="#f9d332"/>
        <path id="パス_2307" data-name="パス 2307" d="M1190.184,519.262h-14.806v-1.777h14.806Z" fill="#f9d332"/>
        <path id="パス_2308" data-name="パス 2308" d="M1175.376,519.262H1160.57v-1.777h14.806Z" fill="#f9d332"/>
        <path id="パス_2309" data-name="パス 2309" d="M1160.8,519.262h-14.806v-1.777H1160.8Z" fill="#f9d332"/>
        <path id="パス_2310" data-name="パス 2310" d="M1145.992,519.262h-14.806v-1.777h14.806Z" fill="#f9d332"/>
        <path id="パス_2311" data-name="パス 2311" d="M1131.184,519.262h-14.806v-1.777h14.806Z" fill="#f9d332"/>
        <path id="パス_2312" data-name="パス 2312" d="M1116.376,519.262H1101.57v-1.777h14.806Z" fill="#f9d332"/>
        <path id="パス_2313" data-name="パス 2313" d="M1219.8,699.57h-14.806v-1.777H1219.8Z" fill="#f9d332"/>
        <path id="パス_2314" data-name="パス 2314" d="M1204.992,699.57h-14.806v-1.777h14.806Z" fill="#f9d332"/>
        <path id="パス_2315" data-name="パス 2315" d="M1190.184,699.57h-14.806v-1.777h14.806Z" fill="#f9d332"/>
        <path id="パス_2316" data-name="パス 2316" d="M1175.376,699.57H1160.57v-1.777h14.806Z" fill="#f9d332"/>
        <path id="パス_2317" data-name="パス 2317" d="M1160.8,699.57h-14.806v-1.777H1160.8Z" fill="#f9d332"/>
        <path id="パス_2318" data-name="パス 2318" d="M1145.992,699.57h-14.806v-1.777h14.806Z" fill="#f9d332"/>
        <path id="パス_2319" data-name="パス 2319" d="M1131.184,699.57h-14.806v-1.777h14.806Z" fill="#f9d332"/>
        <path id="パス_2320" data-name="パス 2320" d="M1050.926,561.315h-1.777V546.509h1.777Z" fill="#f9d332"/>
        <path id="パス_2321" data-name="パス 2321" d="M1051,578.545h-1.777v-14.8H1051Z" fill="#f9d332"/>
        <path id="パス_2322" data-name="パス 2322" d="M1050.926,596.315h-1.777V581.509h1.777Z" fill="#f9d332"/>
        <path id="パス_2323" data-name="パス 2323" d="M1050.926,596.315h-1.777V581.509h1.777Z" fill="#f9d332"/>
        <path id="パス_2324" data-name="パス 2324" d="M1051,614.545h-1.777v-14.8H1051Z" fill="#f9d332"/>
        <path id="パス_2325" data-name="パス 2325" d="M1050.926,632.315h-1.777V617.509h1.777Z" fill="#f9d332"/>
        <path id="パス_2326" data-name="パス 2326" d="M1050.926,632.315h-1.777V617.509h1.777Z" fill="#f9d332"/>
        <path id="パス_2327" data-name="パス 2327" d="M1051,651.545h-1.777v-14.8H1051Z" fill="#f9d332"/>
        <path id="パス_2328" data-name="パス 2328" d="M1050.926,669.315h-1.777V654.509h1.777Z" fill="#f9d332"/>
        <path id="パス_2329" data-name="パス 2329" d="M1050.926,669.315h-1.777V654.509h1.777Z" fill="#f9d332"/>
        <path id="パス_2330" data-name="パス 2330" d="M1050.926,687.315h-1.777V672.509h1.777Z" fill="#f9d332"/>
        <path id="パス_2331" data-name="パス 2331" d="M1332,578.545h-1.777v-14.8H1332Z" fill="#f9d332"/>
        <path id="パス_2332" data-name="パス 2332" d="M1331.926,596.315h-1.777V581.509h1.777Z" fill="#f9d332"/>
        <path id="パス_2333" data-name="パス 2333" d="M1331.926,596.315h-1.777V581.509h1.777Z" fill="#f9d332"/>
        <path id="パス_2334" data-name="パス 2334" d="M1332,614.545h-1.777v-14.8H1332Z" fill="#f9d332"/>
        <path id="パス_2335" data-name="パス 2335" d="M1331.926,632.315h-1.777V617.509h1.777Z" fill="#f9d332"/>
        <path id="パス_2336" data-name="パス 2336" d="M1331.926,632.315h-1.777V617.509h1.777Z" fill="#f9d332"/>
        <path id="パス_2337" data-name="パス 2337" d="M1332,651.545h-1.777v-14.8H1332Z" fill="#f9d332"/>
        <path id="パス_2338" data-name="パス 2338" d="M1331.926,669.315h-1.777V654.509h1.777Z" fill="#f9d332"/>
        <path id="パス_2339" data-name="パス 2339" d="M1331.926,669.315h-1.777V654.509h1.777Z" fill="#f9d332"/>
        <path id="パス_2340" data-name="パス 2340" d="M1331.926,687.315h-1.777V672.509h1.777Z" fill="#f9d332"/>
      </g>
      <g id="text">
        <text id="_07.06" data-name="07.06" transform="translate(1071.1 586.797)" fill="#15285e" font-size="66.667" font-family="Helvetica-Bold, Helvetica" font-weight="700"><tspan x="0" y="0">07.06</tspan></text>
        <text id="SAT." transform="translate(1243.279 589.43)" fill="#15285e" font-size="32.949" font-family="Helvetica"><tspan x="0" y="0">SAT.</tspan></text>
        <text id="SUN." transform="translate(1243.279 673.473)" fill="#15285e" font-size="32.949" font-family="Helvetica" letter-spacing="-0.04em"><tspan x="0" y="0">SUN.</tspan></text>
        <text id="_09.08" data-name="09.08" transform="translate(1070.917 672.797)" fill="#15285e" font-size="66.667" font-family="Helvetica-Bold, Helvetica" font-weight="700"><tspan x="0" y="0">09.08</tspan></text>
        <g id="グループ_235" data-name="グループ 235" transform="translate(0 -2)">
          <g id="グループ_114" data-name="グループ 114">
            <path id="パス_3217" data-name="パス 3217" d="M1156.732,600.656v20.736h-5.18V600.656Z" fill="#15285e"/>
          </g>
          <g id="グループ_233" data-name="グループ 233" transform="translate(769.669 -625.766) rotate(45)">
            <path id="パス_3217-2" data-name="パス 3217" d="M1156.732,600.656v13.15h-5.18v-13.15Z" fill="#15285e"/>
          </g>
          <g id="グループ_234" data-name="グループ 234" transform="translate(1156.896 622.056) rotate(135)">
            <path id="パス_3217-3" data-name="パス 3217" d="M5.18,12.479V0H0V12.479Z" transform="translate(0 0)" fill="#15285e"/>
          </g>
        </g>
      </g>
    </g>
    <g id="_2019" data-name="2019" transform="translate(1051 413.475)">
      <g id="グループ_8" data-name="グループ 8">
        <g id="グループ_7" data-name="グループ 7">
          <path id="パス_122" data-name="パス 122" d="M156.6,626.82v8.969H144.91V633.88h9.183V626.82Z" transform="translate(123.888 -537.801)" fill="#e06f22"/>
          <rect id="長方形_4" data-name="長方形 4" width="2.505" height="16.005" transform="translate(277.982 69.817)" fill="#e06f22"/>
          <rect id="長方形_5" data-name="長方形 5" width="2.505" height="16.029" transform="translate(277.982 50.592)" fill="#e06f22"/>
          <rect id="長方形_6" data-name="長方形 6" width="2.505" height="16.005" transform="translate(277.982 31.39)" fill="#e06f22"/>
          <rect id="長方形_7" data-name="長方形 7" width="2.505" height="16.029" transform="translate(277.982 12.165)" fill="#e06f22"/>
          <path id="パス_123" data-name="パス 123" d="M156.6,589.5v8.969h-2.5v-7.037H144.91V589.5Z" transform="translate(123.888 -589.5)" fill="#e06f22"/>
          <path id="パス_124" data-name="パス 124" d="M186.024,677.4v7.06h-9.183v1.908h-.525v-1.908h-9.183V677.4h-2.5v-3.2h2.5V658.2h-2.5V655h2.5V646.03H155.445v1.908h-.5V646.03H134.073v1.908h-.525V646.03h-9.183v-7.06h-2.5v-3.2h2.5V619.768h-2.5v-3.2h2.5V600.543h-2.5v-3.2h2.5V590.31h61.66V677.4Zm-18.892-48.66v-8.969h-2.5V626.8h-9.183v1.932Zm0-12.165V607.6H155.445v1.908h9.183v7.061Zm-12.189,12.165V626.8h-9.183v-7.037h-2.5v8.969Zm0-19.226V607.6H143.256v8.969h2.5v-7.061Z" transform="translate(91.957 -588.378)" fill="#fff"/>
          <path id="パス_125" data-name="パス 125" d="M151.478,633.88v1.908H139.79V626.82h2.5v7.061Z" transform="translate(116.796 -537.801)" fill="#e06f22"/>
          <rect id="長方形_8" data-name="長方形 8" width="20.871" height="1.932" transform="translate(247.402)" fill="#e06f22"/>
          <rect id="長方形_9" data-name="長方形 9" width="2.505" height="16.005" transform="translate(256.586 69.817)" fill="#e06f22"/>
          <path id="パス_126" data-name="パス 126" d="M147.628,613.67v8.969h-2.5v-7.061H135.94V613.67Z" transform="translate(111.462 -556.018)" fill="#e06f22"/>
          <path id="パス_127" data-name="パス 127" d="M147.628,602.66v8.969H135.94V609.7h9.183V602.66Z" transform="translate(111.462 -571.27)" fill="#e06f22"/>
          <path id="パス_128" data-name="パス 128" d="M147.628,597.56v8.969h-2.5v-7.061H135.94V597.56Z" transform="translate(111.462 -578.335)" fill="#e06f22"/>
          <rect id="長方形_10" data-name="長方形 10" width="20.871" height="1.908" transform="translate(226.03 57.652)" fill="#e06f22"/>
          <path id="パス_129" data-name="パス 129" d="M142.518,609.7v1.932H130.83V602.66h2.5V609.7Z" transform="translate(104.384 -571.27)" fill="#e06f22"/>
          <path id="パス_130" data-name="パス 130" d="M142.518,597.56v1.908h-9.183v7.061h-2.5V597.56Z" transform="translate(104.384 -578.335)" fill="#e06f22"/>
          <rect id="長方形_11" data-name="長方形 11" width="20.871" height="1.932" transform="translate(226.03)" fill="#e06f22"/>
          <path id="パス_131" data-name="パス 131" d="M133.548,617.77v1.908H121.86V610.71h2.5v7.06Z" transform="translate(91.957 -560.118)" fill="#e06f22"/>
          <path id="パス_132" data-name="パス 132" d="M133.548,589.5v1.932h-9.183v7.037h-2.5V589.5Z" transform="translate(91.957 -589.5)" fill="#e06f22"/>
          <rect id="長方形_12" data-name="長方形 12" width="2.505" height="16.005" transform="translate(213.817 31.39)" fill="#e06f22"/>
          <rect id="長方形_13" data-name="長方形 13" width="2.505" height="16.029" transform="translate(213.817 12.165)" fill="#e06f22"/>
          <path id="パス_133" data-name="パス 133" d="M120.738,626.82v8.969H109.05V633.88h9.183V626.82Z" transform="translate(74.212 -537.801)" fill="#e06f22"/>
          <rect id="長方形_14" data-name="長方形 14" width="2.505" height="16.005" transform="translate(192.445 69.817)" fill="#e06f22"/>
          <rect id="長方形_15" data-name="長方形 15" width="2.505" height="16.029" transform="translate(192.445 50.592)" fill="#e06f22"/>
          <rect id="長方形_16" data-name="長方形 16" width="2.505" height="16.005" transform="translate(192.445 31.39)" fill="#e06f22"/>
          <rect id="長方形_17" data-name="長方形 17" width="2.505" height="16.029" transform="translate(192.445 12.165)" fill="#e06f22"/>
          <path id="パス_134" data-name="パス 134" d="M120.738,589.5v8.969h-2.5v-7.037H109.05V589.5Z" transform="translate(74.212 -589.5)" fill="#e06f22"/>
          <path id="パス_135" data-name="パス 135" d="M125.312,677.4v7.06h-9.183v1.908H115.6v-1.908h-9.16V677.4h-2.5v-3.2h2.5V658.2h-2.5V655h2.5V638.97h-2.5v-3.2h2.5V619.768h-2.5v-3.2h2.5V600.543h-2.5v-3.2h2.5V590.31h18.868V677.4Z" transform="translate(67.133 -588.378)" fill="#fff"/>
          <path id="パス_136" data-name="パス 136" d="M115.6,633.88v1.908H103.94V626.82h2.5v7.061Z" transform="translate(67.133 -537.801)" fill="#e06f22"/>
          <path id="パス_137" data-name="パス 137" d="M115.6,589.5v1.932h-9.16v7.037h-2.5V589.5Z" transform="translate(67.133 -589.5)" fill="#e06f22"/>
          <rect id="長方形_18" data-name="長方形 18" width="2.505" height="16.005" transform="translate(171.073 69.817)" fill="#e06f22"/>
          <rect id="長方形_19" data-name="長方形 19" width="2.505" height="16.029" transform="translate(171.073 50.592)" fill="#e06f22"/>
          <rect id="長方形_20" data-name="長方形 20" width="2.505" height="16.005" transform="translate(171.073 31.39)" fill="#e06f22"/>
          <rect id="長方形_21" data-name="長方形 21" width="2.505" height="16.029" transform="translate(171.073 12.165)" fill="#e06f22"/>
          <path id="パス_138" data-name="パス 138" d="M102.808,626.82v8.969H91.12V633.88H100.3V626.82Z" transform="translate(49.374 -537.801)" fill="#e06f22"/>
          <rect id="長方形_22" data-name="長方形 22" width="2.505" height="16.005" transform="translate(149.677 69.817)" fill="#e06f22"/>
          <rect id="長方形_23" data-name="長方形 23" width="2.505" height="16.029" transform="translate(149.677 50.592)" fill="#e06f22"/>
          <rect id="長方形_24" data-name="長方形 24" width="2.505" height="16.005" transform="translate(149.677 31.39)" fill="#e06f22"/>
          <rect id="長方形_25" data-name="長方形 25" width="2.505" height="16.029" transform="translate(149.677 12.165)" fill="#e06f22"/>
          <path id="パス_139" data-name="パス 139" d="M102.808,589.5v8.969h-2.5v-7.037H91.12V589.5Z" transform="translate(49.374 -589.5)" fill="#e06f22"/>
          <path id="パス_140" data-name="パス 140" d="M132.22,677.4v7.06h-9.183v1.908h-.5v-1.908H101.665v1.908h-.525v-1.908H80.269v1.908h-.5v-1.908H70.585V677.4h-2.5v-3.2h2.5V658.2h-2.5V655h2.5V638.97h-2.5v-3.2h2.5V619.768h-2.5v-3.2h2.5V600.543h-2.5v-3.2h2.5V590.31H132.22V677.4Zm-18.868-10.233V658.2h-2.5V655h2.5V638.97h-2.5v-3.2h2.5V619.768h-2.5v-3.2h2.5V607.6H101.665v1.908h-.525V607.6H89.452v59.561h23.9Z" transform="translate(17.457 -588.378)" fill="#fff"/>
          <rect id="長方形_26" data-name="長方形 26" width="20.871" height="1.908" transform="translate(119.121 96.08)" fill="#e06f22"/>
          <rect id="長方形_27" data-name="長方形 27" width="20.871" height="1.932" transform="translate(119.121)" fill="#e06f22"/>
          <path id="パス_141" data-name="パス 141" d="M93.848,618.77v8.969H82.16v-1.932h9.183V618.77Z" transform="translate(36.961 -548.953)" fill="#e06f22"/>
          <rect id="長方形_28" data-name="長方形 28" width="2.505" height="16.029" transform="translate(128.305 50.592)" fill="#e06f22"/>
          <rect id="長方形_29" data-name="長方形 29" width="2.505" height="16.005" transform="translate(128.305 31.39)" fill="#e06f22"/>
          <path id="パス_142" data-name="パス 142" d="M93.848,597.56v8.969h-2.5v-7.061H82.16V597.56Z" transform="translate(36.961 -578.335)" fill="#e06f22"/>
          <rect id="長方形_30" data-name="長方形 30" width="20.871" height="1.908" transform="translate(97.725 96.08)" fill="#e06f22"/>
          <path id="パス_143" data-name="パス 143" d="M88.728,625.806v1.932H77.04V618.77h2.5v7.036Z" transform="translate(29.869 -548.953)" fill="#e06f22"/>
          <path id="パス_144" data-name="パス 144" d="M88.728,597.56v1.908H79.545v7.061h-2.5V597.56Z" transform="translate(29.869 -578.335)" fill="#e06f22"/>
          <rect id="長方形_31" data-name="長方形 31" width="20.871" height="1.932" transform="translate(97.725)" fill="#e06f22"/>
          <rect id="長方形_32" data-name="長方形 32" width="2.505" height="16.029" transform="translate(106.909 50.592)" fill="#e06f22"/>
          <rect id="長方形_33" data-name="長方形 33" width="2.505" height="16.005" transform="translate(106.909 31.39)" fill="#e06f22"/>
          <path id="パス_145" data-name="パス 145" d="M79.768,633.88v1.908H68.08V626.82h2.5v7.061Z" transform="translate(17.457 -537.801)" fill="#e06f22"/>
          <path id="パス_146" data-name="パス 146" d="M79.768,589.5v1.932H70.585v7.037h-2.5V589.5Z" transform="translate(17.457 -589.5)" fill="#e06f22"/>
          <rect id="長方形_34" data-name="長方形 34" width="2.505" height="16.005" transform="translate(85.537 69.817)" fill="#e06f22"/>
          <rect id="長方形_35" data-name="長方形 35" width="2.505" height="16.029" transform="translate(85.537 50.592)" fill="#e06f22"/>
          <rect id="長方形_36" data-name="長方形 36" width="2.505" height="16.005" transform="translate(85.537 31.39)" fill="#e06f22"/>
          <rect id="長方形_37" data-name="長方形 37" width="2.505" height="16.029" transform="translate(85.537 12.165)" fill="#e06f22"/>
          <path id="パス_147" data-name="パス 147" d="M66.948,626.82v8.969H55.26V633.88h9.183V626.82Z" transform="translate(-0.303 -537.801)" fill="#e06f22"/>
          <path id="パス_148" data-name="パス 148" d="M66.948,621.72v8.969h-2.5v-7.037H55.26V621.72Z" transform="translate(-0.303 -544.866)" fill="#e06f22"/>
          <path id="パス_149" data-name="パス 149" d="M66.948,610.71v8.969H55.26V617.77h9.183v-7.06Z" transform="translate(-0.303 -560.118)" fill="#e06f22"/>
          <rect id="長方形_38" data-name="長方形 38" width="2.505" height="16.005" transform="translate(64.14 31.39)" fill="#e06f22"/>
          <rect id="長方形_39" data-name="長方形 39" width="2.505" height="16.029" transform="translate(64.14 12.165)" fill="#e06f22"/>
          <path id="パス_150" data-name="パス 150" d="M66.948,589.5v8.969h-2.5v-7.037H55.26V589.5Z" transform="translate(-0.303 -589.5)" fill="#e06f22"/>
          <path id="パス_151" data-name="パス 151" d="M96.36,677.4v7.06H87.177v1.908h-.5v-1.908H65.8v1.908H65.28v-1.908H44.409v1.908h-.5v-1.908H34.725V677.4h-2.5v-3.2h2.5V658.2h-2.5V655h2.5V638.97h-2.5v-3.2h2.5v-7.037H77.493v-8.969h-2.5v-3.2h2.5V607.6H65.8v1.908H65.28V607.6H44.409v1.908h-.5V607.6H34.725v-7.061h-2.5v-3.2h2.5V590.31H96.36V646.03H87.177v1.908h-.5V646.03H65.8v1.908H65.28V646.03H53.592v21.134H96.36V677.4Z" transform="translate(-32.22 -588.378)" fill="#fff"/>
          <rect id="長方形_40" data-name="長方形 40" width="20.871" height="1.908" transform="translate(33.585 96.08)" fill="#e06f22"/>
          <rect id="長方形_41" data-name="長方形 41" width="20.871" height="1.932" transform="translate(33.585 76.854)" fill="#e06f22"/>
          <rect id="長方形_42" data-name="長方形 42" width="20.871" height="1.908" transform="translate(33.585 57.652)" fill="#e06f22"/>
          <rect id="長方形_43" data-name="長方形 43" width="20.871" height="1.932" transform="translate(33.585)" fill="#e06f22"/>
          <path id="パス_152" data-name="パス 152" d="M57.988,602.66v8.969H46.3V609.7h9.183V602.66Z" transform="translate(-12.715 -571.27)" fill="#e06f22"/>
          <path id="パス_153" data-name="パス 153" d="M57.988,597.56v8.969h-2.5v-7.061H46.3V597.56Z" transform="translate(-12.715 -578.335)" fill="#e06f22"/>
          <rect id="長方形_44" data-name="長方形 44" width="20.871" height="1.908" transform="translate(12.189 96.08)" fill="#e06f22"/>
          <path id="パス_154" data-name="パス 154" d="M52.868,625.806v1.932H41.18V618.77h2.5v7.036Z" transform="translate(-19.808 -548.953)" fill="#e06f22"/>
          <path id="パス_155" data-name="パス 155" d="M52.868,613.67v1.908H43.685v7.061h-2.5V613.67Z" transform="translate(-19.808 -556.018)" fill="#e06f22"/>
          <rect id="長方形_45" data-name="長方形 45" width="20.871" height="1.932" transform="translate(12.189 38.427)" fill="#e06f22"/>
          <rect id="長方形_46" data-name="長方形 46" width="20.871" height="1.908" transform="translate(12.189 19.225)" fill="#e06f22"/>
          <rect id="長方形_47" data-name="長方形 47" width="20.871" height="1.932" transform="translate(12.189)" fill="#e06f22"/>
          <path id="パス_156" data-name="パス 156" d="M43.908,633.88v1.908H32.22V626.82h2.5v7.061Z" transform="translate(-32.22 -537.801)" fill="#e06f22"/>
          <path id="パス_157" data-name="パス 157" d="M43.908,605.61v1.932H34.725v7.037h-2.5V605.61Z" transform="translate(-32.22 -567.183)" fill="#e06f22"/>
          <path id="パス_158" data-name="パス 158" d="M43.908,601.661v1.908H32.22V594.6h2.5v7.06Z" transform="translate(-32.22 -582.435)" fill="#e06f22"/>
          <path id="パス_159" data-name="パス 159" d="M43.908,589.5v1.932H34.725v7.037h-2.5V589.5Z" transform="translate(-32.22 -589.5)" fill="#e06f22"/>
          <rect id="長方形_48" data-name="長方形 48" width="2.505" height="16.005" transform="translate(0 69.817)" fill="#e06f22"/>
          <rect id="長方形_49" data-name="長方形 49" width="2.505" height="16.029" transform="translate(0 50.592)" fill="#e06f22"/>
        </g>
      </g>
    </g>
    <g id="place" transform="translate(404.92 649.161)">
      <path id="パス_3164" data-name="パス 3164" d="M428.231,677.128l23.938-1.356.053.957-23.938,1.357Z" transform="translate(-428.231 -637.528)" fill="#e06f22"/>
      <path id="パス_3165" data-name="パス 3165" d="M462.981,654.857c.01.192-.174.322-.483.388l-.008.7c.455,3.36,2.525,14.458,11.879,18.083a5.377,5.377,0,0,0-1.145,1.409c-6.637-2.7-9.687-9.056-11.093-13.948h-.023c-.731,4.916-2.843,11.28-9.137,15.07a5.779,5.779,0,0,0-1.362-1.148c9.7-5.568,9.1-17.35,9.088-20.591Z" transform="translate(-427.098 -638.543)" fill="#e06f22"/>
      <path id="パス_3166" data-name="パス 3166" d="M485.815,653.564c.012.191-.174.322-.482.387l-.008.7c.455,3.36,2.525,14.458,11.879,18.083a5.36,5.36,0,0,0-1.145,1.41c-6.637-2.7-9.687-9.057-11.093-13.949h-.024c-.73,4.916-2.842,11.28-9.136,15.07a5.777,5.777,0,0,0-1.362-1.147c9.7-5.569,9.1-17.351,9.088-20.591Z" transform="translate(-425.992 -638.606)" fill="#e06f22"/>
      <path id="パス_3167" data-name="パス 3167" d="M508.65,652.27c.012.192-.174.322-.482.388l-.008.7c.454,3.36,2.524,14.458,11.879,18.083a5.355,5.355,0,0,0-1.145,1.409c-6.637-2.7-9.687-9.057-11.093-13.948l-.024,0c-.73,4.916-2.843,11.279-9.136,15.069a5.827,5.827,0,0,0-1.362-1.147c9.7-5.568,9.1-17.35,9.088-20.591Z" transform="translate(-424.886 -638.668)" fill="#e06f22"/>
      <path id="パス_3168" data-name="パス 3168" d="M531.485,650.977c.01.191-.174.322-.482.387l-.008.7c.454,3.36,2.524,14.458,11.879,18.083a5.36,5.36,0,0,0-1.145,1.41c-6.637-2.7-9.687-9.058-11.093-13.948h-.024c-.73,4.916-2.843,11.28-9.136,15.07a5.8,5.8,0,0,0-1.362-1.147c9.7-5.569,9.1-17.351,9.088-20.591Z" transform="translate(-423.78 -638.731)" fill="#e06f22"/>
      <path id="パス_3169" data-name="パス 3169" d="M554.32,649.683c.01.192-.174.322-.482.388l-.008.7c.454,3.36,2.524,14.459,11.879,18.083a5.379,5.379,0,0,0-1.145,1.41c-6.637-2.7-9.687-9.056-11.093-13.948l-.024,0c-.73,4.915-2.843,11.279-9.136,15.069a5.824,5.824,0,0,0-1.362-1.147c9.7-5.568,9.1-17.351,9.088-20.591Z" transform="translate(-422.673 -638.794)" fill="#e06f22"/>
      <path id="パス_3170" data-name="パス 3170" d="M577.156,648.389c.01.192-.174.322-.483.388l-.008.7c.455,3.36,2.525,14.458,11.88,18.083a5.336,5.336,0,0,0-1.145,1.409c-6.638-2.7-9.687-9.056-11.093-13.947h-.024c-.731,4.916-2.843,11.28-9.137,15.07a5.75,5.75,0,0,0-1.362-1.147c9.7-5.569,9.1-17.351,9.088-20.593Z" transform="translate(-421.567 -638.856)" fill="#e06f22"/>
      <path id="パス_3171" data-name="パス 3171" d="M599.989,647.1c.012.192-.173.322-.482.388l-.008.7c.455,3.36,2.525,14.459,11.879,18.083a5.375,5.375,0,0,0-1.145,1.41c-6.637-2.7-9.687-9.056-11.093-13.948h-.023c-.73,4.916-2.843,11.28-9.137,15.07a5.8,5.8,0,0,0-1.362-1.147c9.7-5.568,9.1-17.351,9.088-20.591Z" transform="translate(-420.461 -638.919)" fill="#e06f22"/>
      <path id="パス_3172" data-name="パス 3172" d="M622.824,645.8c.01.192-.174.322-.482.388l-.008.7c.455,3.36,2.525,14.458,11.879,18.082a5.378,5.378,0,0,0-1.145,1.409c-6.637-2.7-9.687-9.056-11.093-13.948h-.023c-.731,4.916-2.843,11.28-9.137,15.07a5.78,5.78,0,0,0-1.362-1.148c9.7-5.568,9.1-17.35,9.088-20.591Z" transform="translate(-419.355 -638.982)" fill="#e06f22"/>
      <path id="パス_3173" data-name="パス 3173" d="M645.659,644.509c.01.191-.174.322-.482.387l-.008.7c.454,3.36,2.524,14.458,11.879,18.083a5.361,5.361,0,0,0-1.145,1.41c-6.637-2.7-9.688-9.057-11.093-13.949h-.024c-.73,4.916-2.843,11.28-9.136,15.07a5.822,5.822,0,0,0-1.362-1.147c9.7-5.569,9.1-17.351,9.088-20.591Z" transform="translate(-418.248 -639.044)" fill="#e06f22"/>
      <path id="パス_3174" data-name="パス 3174" d="M668.494,643.215c.01.192-.174.322-.482.388l-.009.7c.455,3.36,2.525,14.458,11.879,18.083a5.371,5.371,0,0,0-1.144,1.409c-6.637-2.7-9.688-9.057-11.093-13.949l-.024,0c-.731,4.916-2.843,11.279-9.136,15.069a5.848,5.848,0,0,0-1.362-1.147c9.7-5.568,9.1-17.35,9.088-20.591Z" transform="translate(-417.142 -639.107)" fill="#e06f22"/>
      <path id="パス_3175" data-name="パス 3175" d="M691.33,641.922c.01.191-.174.322-.482.387l-.009.7c.455,3.36,2.525,14.458,11.879,18.083a5.359,5.359,0,0,0-1.144,1.41c-6.637-2.7-9.688-9.057-11.092-13.948h-.024c-.731,4.916-2.843,11.28-9.136,15.07a5.805,5.805,0,0,0-1.363-1.147c9.7-5.569,9.1-17.351,9.088-20.592Z" transform="translate(-416.036 -639.17)" fill="#e06f22"/>
      <path id="パス_3176" data-name="パス 3176" d="M714.164,640.628c.01.192-.174.322-.483.388l-.008.7c.454,3.36,2.525,14.459,11.879,18.084a5.352,5.352,0,0,0-1.144,1.409c-6.638-2.7-9.688-9.056-11.094-13.949l-.024,0c-.73,4.915-2.843,11.279-9.136,15.069a5.823,5.823,0,0,0-1.362-1.147c9.7-5.568,9.1-17.351,9.088-20.591Z" transform="translate(-414.93 -639.232)" fill="#e06f22"/>
      <path id="パス_3177" data-name="パス 3177" d="M737,639.334c.011.192-.174.322-.482.388l-.008.7c.454,3.36,2.524,14.458,11.879,18.083a5.357,5.357,0,0,0-1.145,1.409c-6.637-2.7-9.687-9.056-11.092-13.947h-.024c-.73,4.916-2.843,11.28-9.136,15.07a5.775,5.775,0,0,0-1.362-1.147c9.7-5.569,9.1-17.351,9.088-20.593Z" transform="translate(-413.823 -639.295)" fill="#e06f22"/>
      <path id="パス_3178" data-name="パス 3178" d="M753.4,658.708l23.937-1.356.055.957-23.938,1.356Z" transform="translate(-412.478 -638.42)" fill="#e06f22"/>
      <path id="パス_3179" data-name="パス 3179" d="M432.033,685.055l18.453,8.2.005.1-17.408,10.232-.77-1.3,15.04-8.777,0-.048-15.935-7.022Z" transform="translate(-428.077 -637.078)" fill="#e06f22"/>
      <path id="パス_3180" data-name="パス 3180" d="M469.943,695.342l.053.934c.993.568,3.211,2,3.786,2.4l-.887,1.3c-.533-.5-1.789-1.484-2.816-2.242l.319,5.625-1.533.087-.371-6.559a14.756,14.756,0,0,1-3.778,5.377,6.969,6.969,0,0,0-.848-1.393,14.458,14.458,0,0,0,3.873-5.407l-3.807.216-.083-1.459,4.477-.254-.17-2.993,2,.031c-.016.145-.129.272-.437.337l.144,2.538,3.639-.207.083,1.461Zm3.7-3.859-.355-6.272a20.862,20.862,0,0,1-8.395,6.528,6.671,6.671,0,0,0-1.1-1.211,19.275,19.275,0,0,0,7.766-5.363l-7.085.4-.083-1.459,8.809-.5-.157-2.777,2.091.025c-.015.169-.151.3-.46.363l.13,2.3,9.049-.513.083,1.46-7.373.417a20.57,20.57,0,0,0,8.693,4.238,8.34,8.34,0,0,0-1,1.379,21,21,0,0,1-9.358-5.379l.355,6.272Zm12.08,2.966-4.309.244A16.946,16.946,0,0,0,486.466,700a8.361,8.361,0,0,0-1.078,1.334,20.358,20.358,0,0,1-4.866-5.776l.409,7.2-1.533.087-.4-7.085a16.923,16.923,0,0,1-4.806,6.3,7.072,7.072,0,0,0-1.1-1.139,14.745,14.745,0,0,0,4.893-6.04l-3.28.186-.083-1.459,4.237-.24-.17-2.993,2.019.03c-.016.145-.153.273-.461.338l.144,2.538,5.243-.3Z" transform="translate(-426.508 -637.283)" fill="#e06f22"/>
      <path id="パス_3181" data-name="パス 3181" d="M507.021,681.738a.619.619,0,0,1-.3.234,20.533,20.533,0,0,1-5.239,7.981,10.456,10.456,0,0,0-1.516-.9,14.475,14.475,0,0,0,4.428-6.207l-17.14.971-.092-1.627,18.049-1.022.257-.135Zm-9.089,4.886c-.013.193-.219.372-.527.438-.374,5.689-2.008,11.185-6.778,14.312a11.424,11.424,0,0,0-1.475-1.021c4.732-2.958,6.2-8.059,6.444-13.862Z" transform="translate(-425.376 -637.273)" fill="#e06f22"/>
      <path id="パス_3182" data-name="パス 3182" d="M508.653,688.3l19.989-1.132.1,1.7-19.079,1.081a1.1,1.1,0,0,1-.74.5Z" transform="translate(-424.335 -636.976)" fill="#e06f22"/>
      <path id="パス_3183" data-name="パス 3183" d="M532.293,681a29.233,29.233,0,0,1,2.659,6.237l-1.574.618a32.055,32.055,0,0,0-2.613-6.264Zm17.946-.729c-.06.219-.294.328-.6.346-2.035,8.593-5.668,13.985-12.974,17.689a11.371,11.371,0,0,0-1.224-1.251c7.15-3.5,10.635-8.528,12.512-17.376ZM539.8,679.2a40.235,40.235,0,0,1,1.654,6.727l-1.685.36a39.373,39.373,0,0,0-1.629-6.7Z" transform="translate(-423.264 -637.362)" fill="#e06f22"/>
      <path id="パス_3184" data-name="パス 3184" d="M572.733,681.309a.815.815,0,0,1-.367.308,25.314,25.314,0,0,1-4.561,8.088,13.511,13.511,0,0,0-1.485-.781,17.343,17.343,0,0,0,3.757-6.168l-9.032,2.913.351,6.2c.132,2.346,1.589,3.055,3.5,2.947l3.9-.221a34.922,34.922,0,0,0,3.552-.465c.029.526.09,1.171.143,1.672-.951.174-2.622.341-3.531.392l-4,.226c-3.015.171-5.106-1.127-5.294-4.431l-.328-5.794-5.945,1.9-.5-1.58,6.348-1.969-.412-7.277,2.326-.036c-.031.29-.238.446-.571.513l.354,6.248,9.978-3.183.253-.207Z" transform="translate(-422.191 -637.457)" fill="#e06f22"/>
      <path id="パス_3185" data-name="パス 3185" d="M575.84,677.527a29.816,29.816,0,0,1,7.318,2.852l-.824,1.559a30.666,30.666,0,0,0-7.179-2.93Zm.844,16.595c8.349-3.115,13.728-8.2,16.226-14.992a9.328,9.328,0,0,0,1.611.893c-2.621,6.729-8.173,12.158-16.135,15.323a.78.78,0,0,1-.3.569Z" transform="translate(-421.113 -637.443)" fill="#e06f22"/>
      <path id="パス_3186" data-name="パス 3186" d="M612.924,677.655a.4.4,0,0,1-.273.279,31.3,31.3,0,0,1-3.07,8.123c1.063.54,2.277,1.216,3.2,1.812l-.915,1.638c-.9-.622-2.165-1.342-3.206-1.908a22.591,22.591,0,0,1-8.229,7.767,5.036,5.036,0,0,0-1.387-1.17,22.739,22.739,0,0,0,8.083-7.375,40.573,40.573,0,0,0-5.432-2.189l.835-1.392a40.288,40.288,0,0,1,5.522,2.113,24.63,24.63,0,0,0,2.537-6.508l-8.115.46a25.984,25.984,0,0,1-5.156,6.9,13.007,13.007,0,0,0-1.425-1,24.9,24.9,0,0,0,6.928-11.223l2.3.4c-.082.268-.317.354-.629.348-.29.808-.775,2.013-1.18,2.924l7.948-.45.329-.115Z" transform="translate(-420.108 -637.615)" fill="#e06f22"/>
      <path id="パス_3187" data-name="パス 3187" d="M616.663,682.182l19.989-1.132.1,1.7-19.08,1.081a1.1,1.1,0,0,1-.739.5Z" transform="translate(-419.102 -637.272)" fill="#e06f22"/>
      <path id="パス_3188" data-name="パス 3188" d="M650.172,684.8l1.286,7.444-1.713.289-1.237-7.422L639.6,686.8l-.283-1.593,8.912-1.658-.927-5.351-7.462,1.408-.306-1.591,7.511-1.387-.822-4.756,2.341-.2c.013.215-.169.417-.522.534l.689,4.092,7.01-1.311.283,1.617-7.01,1.311.9,5.328,8.959-1.661.257,1.571Zm4.288-13.33a17.378,17.378,0,0,1,3.262,3.32l-.919.724a18.917,18.917,0,0,0-3.187-3.276Zm2.856-1.724a19.081,19.081,0,0,1,3.331,3.27l-.941.75a18.4,18.4,0,0,0-3.233-3.227Z" transform="translate(-418.005 -637.82)" fill="#e06f22"/>
      <path id="パス_3189" data-name="パス 3189" d="M677.666,677.813a.6.6,0,0,1-.254.182,20.628,20.628,0,0,1-3.933,6.876,7.487,7.487,0,0,0-1.243-.746,16.788,16.788,0,0,0,3.3-5.3l-6.619,1.863,2.782,10.1-1.4.391-2.781-10.1-5.388,1.554-.387-1.323,5.436-1.533-1.359-4.917,1.976-.3c.01.191-.1.342-.4.5l1.155,4.3,7.779-2.145.161-.129Z" transform="translate(-416.918 -637.587)" fill="#e06f22"/>
      <path id="パス_3190" data-name="パス 3190" d="M698.881,676.5a.544.544,0,0,1-.3.257c-1.554,7.34-5.352,11.085-12.4,13.479A7.055,7.055,0,0,0,685.1,688.9c6.419-2,10.275-5.578,11.468-11.216l-15.847.9-.092-1.628,16.565-.938.231-.157Zm-2.54-5-13.644.774-.089-1.58,13.645-.774Z" transform="translate(-416.003 -637.811)" fill="#e06f22"/>
      <path id="パス_3191" data-name="パス 3191" d="M703.3,681.734l-.66-11.634,2.282.015c-.013.217-.17.393-.55.463L705,681.638Zm12.621-13.323c-.01.24-.172.37-.552.439l.431,7.613c.285,5.026-1.178,9.72-7.9,12.767a6.971,6.971,0,0,0-1.318-1.222c6.492-2.841,7.744-7.018,7.492-11.447l-.462-8.163Z" transform="translate(-414.937 -637.885)" fill="#e06f22"/>
      <path id="パス_3192" data-name="パス 3192" d="M720.334,676.309l19.989-1.132.1,1.7-19.08,1.08a1.1,1.1,0,0,1-.74.5Z" transform="translate(-414.08 -637.557)" fill="#e06f22"/>
      <path id="パス_3193" data-name="パス 3193" d="M775.765,665.627l.77,1.3-15.04,8.778,0,.047,15.935,7.023-.618,1.38-18.453-8.2-.005-.1Z" transform="translate(-412.238 -638.019)" fill="#e06f22"/>
      <path id="パス_3194" data-name="パス 3194" d="M430.093,710.014l23.938-1.357.055.957-23.938,1.357Z" transform="translate(-428.141 -635.935)" fill="#e06f22"/>
      <path id="パス_3195" data-name="パス 3195" d="M466.851,710.606l-5.275,10.745.444,7.828-1.987.112-.441-7.779-6.146-10.147,2.274-.129,2.827,4.956c.772,1.324,1.412,2.465,2.038,3.751l.071,0c.433-1.25.986-2.53,1.623-3.983l2.346-5.224Z" transform="translate(-427.009 -635.84)" fill="#e06f22"/>
      <path id="パス_3196" data-name="パス 3196" d="M481.291,722.85l-1.675.1-5.223-10.391-.071,0L470.3,723.473l-1.652.093,4.851-12.714,1.509-.085Z" transform="translate(-426.273 -635.832)" fill="#e06f22"/>
      <path id="パス_3197" data-name="パス 3197" d="M495.44,708.986l-5.275,10.745.443,7.828-1.988.113-.44-7.779-6.146-10.147,2.274-.129,2.827,4.955c.772,1.325,1.412,2.466,2.037,3.751l.072,0c.433-1.25.986-2.53,1.623-3.983l2.345-5.223Z" transform="translate(-425.624 -635.919)" fill="#e06f22"/>
      <path id="パス_3198" data-name="パス 3198" d="M509.88,721.231l-1.675.094-5.223-10.39-.072,0-4.017,10.913-1.651.094,4.851-12.714,1.508-.086Z" transform="translate(-424.888 -635.911)" fill="#e06f22"/>
      <path id="パス_3199" data-name="パス 3199" d="M524.029,707.367l-5.275,10.746.443,7.828-1.987.112-.441-7.78-6.146-10.147L512.9,708l2.827,4.955c.772,1.325,1.412,2.466,2.037,3.751l.072,0c.433-1.25.986-2.53,1.623-3.983l2.346-5.224Z" transform="translate(-424.239 -635.997)" fill="#e06f22"/>
      <path id="パス_3200" data-name="パス 3200" d="M538.469,719.611l-1.675.1-5.223-10.391-.072,0-4.017,10.914-1.651.093,4.851-12.714,1.508-.085Z" transform="translate(-423.503 -635.989)" fill="#e06f22"/>
      <path id="パス_3201" data-name="パス 3201" d="M557.938,705.446l-5.275,10.746.443,7.828-1.988.112-.44-7.779-6.146-10.147,2.274-.129,2.827,4.956c.771,1.324,1.412,2.465,2.037,3.751l.072,0c.433-1.25.986-2.53,1.623-3.983l2.345-5.224Z" transform="translate(-422.597 -636.09)" fill="#e06f22"/>
      <path id="パス_3202" data-name="パス 3202" d="M572.378,717.69l-1.675.1-5.223-10.391-.072,0-4.017,10.914-1.651.093,4.851-12.715,1.508-.085Z" transform="translate(-421.86 -636.082)" fill="#e06f22"/>
      <path id="パス_3203" data-name="パス 3203" d="M586.527,703.826l-5.275,10.746.443,7.828-1.988.113-.44-7.779-6.146-10.147,2.274-.129,2.827,4.955c.772,1.325,1.412,2.466,2.037,3.751l.072,0c.433-1.25.986-2.53,1.623-3.983l2.345-5.223Z" transform="translate(-421.212 -636.169)" fill="#e06f22"/>
      <path id="パス_3204" data-name="パス 3204" d="M600.967,716.071l-1.675.094-5.223-10.39-.072,0-4.017,10.913-1.651.094,4.851-12.715,1.508-.086Z" transform="translate(-420.475 -636.161)" fill="#e06f22"/>
      <path id="パス_3205" data-name="パス 3205" d="M615.116,702.207l-5.275,10.746.443,7.828-1.988.112-.44-7.779-6.146-10.147,2.273-.129,2.828,4.955c.771,1.325,1.412,2.466,2.037,3.752l.072,0c.433-1.25.984-2.53,1.623-3.983l2.345-5.224Z" transform="translate(-419.827 -636.247)" fill="#e06f22"/>
      <path id="パス_3206" data-name="パス 3206" d="M629.556,714.451l-1.676.1-5.223-10.391-.071,0-4.017,10.914-1.652.093,4.852-12.715,1.508-.085Z" transform="translate(-419.09 -636.239)" fill="#e06f22"/>
      <path id="パス_3207" data-name="パス 3207" d="M643.7,700.587l-5.275,10.746.443,7.828-1.987.113-.44-7.779L630.3,701.347l2.273-.129,2.827,4.955c.772,1.325,1.412,2.466,2.038,3.751l.071,0c.433-1.25.986-2.53,1.624-3.983l2.345-5.223Z" transform="translate(-418.442 -636.326)" fill="#e06f22"/>
      <path id="パス_3208" data-name="パス 3208" d="M658.144,712.832l-1.675.094-5.223-10.39-.071,0-4.017,10.913-1.651.093,4.85-12.713,1.509-.086Z" transform="translate(-417.705 -636.318)" fill="#e06f22"/>
      <path id="パス_3209" data-name="パス 3209" d="M672.293,698.968l-5.275,10.745.443,7.828-1.987.112-.441-7.779-6.146-10.147,2.274-.129,2.827,4.955c.772,1.325,1.412,2.466,2.038,3.751l.071,0c.433-1.25.986-2.53,1.624-3.983l2.345-5.224Z" transform="translate(-417.057 -636.404)" fill="#e06f22"/>
      <path id="パス_3210" data-name="パス 3210" d="M686.733,711.212l-1.675.1-5.223-10.391-.071,0-4.017,10.914-1.652.093,4.851-12.714,1.508-.085Z" transform="translate(-416.32 -636.396)" fill="#e06f22"/>
      <path id="パス_3211" data-name="パス 3211" d="M700.882,697.348l-5.276,10.745.443,7.828-1.986.113-.441-7.781-6.146-10.146,2.274-.129,2.826,4.955c.772,1.325,1.413,2.465,2.038,3.751l.071,0c.434-1.25.987-2.53,1.624-3.983l2.345-5.223Z" transform="translate(-415.672 -636.482)" fill="#e06f22"/>
      <path id="パス_3212" data-name="パス 3212" d="M715.322,709.593l-1.675.094-5.223-10.39-.072,0-4.017,10.913-1.651.093,4.851-12.714,1.508-.085Z" transform="translate(-414.935 -636.475)" fill="#e06f22"/>
      <path id="パス_3213" data-name="パス 3213" d="M729.471,695.729,724.2,706.474l.443,7.828-1.987.112-.44-7.779-6.146-10.147,2.274-.129,2.826,4.955c.772,1.325,1.413,2.466,2.038,3.751l.071,0c.434-1.25.986-2.53,1.624-3.983l2.345-5.224Z" transform="translate(-414.287 -636.561)" fill="#e06f22"/>
      <path id="パス_3214" data-name="パス 3214" d="M743.911,707.973l-1.675.1-5.224-10.391-.071,0L732.923,708.6l-1.651.093,4.851-12.715,1.508-.086Z" transform="translate(-413.55 -636.553)" fill="#e06f22"/>
      <path id="パス_3215" data-name="パス 3215" d="M758.06,694.109l-5.275,10.745.444,7.828-1.987.113-.441-7.781-6.146-10.146,2.274-.129,2.827,4.955c.771,1.325,1.412,2.465,2.037,3.751l.072,0c.433-1.25.986-2.53,1.624-3.983l2.345-5.223Z" transform="translate(-412.902 -636.639)" fill="#e06f22"/>
      <path id="パス_3216" data-name="パス 3216" d="M756.878,691.5l23.938-1.357.055.957-23.938,1.357Z" transform="translate(-412.309 -636.831)" fill="#e06f22"/>
    </g>
    <g id="name" transform="translate(346.719 414)">
      <g id="グループ_120" data-name="グループ 120" transform="translate(274.22)">
        <path id="パス_3299" data-name="パス 3299" d="M644.523,442.922V418.4H751.969c-8.025,25.859-14.713,42.8-24.075,60.635,16.5,23.034,27.346,41.165,38.343,63.754H733.988A235.678,235.678,0,0,0,714.073,504.3c-14.117,25.561-33.735,38.342-61.079,40.125H634.268V519.31h9.363c22.59.148,34.18-5.5,45.179-22,7.281-10.254,18.725-34.031,26.156-54.392Z" transform="translate(-634.268 -414.835)" fill="#6cd2ea" stroke="#6cd2ea" stroke-miterlimit="10" stroke-width="2.835"/>
        <path id="パス_3300" data-name="パス 3300" d="M769.615,486.481l50.082-.593L818.212,462.7l-39.68.6V440.263l38.194-.594L815.09,415h26.6l1.635,24.372,45.624-.743v23.034l-44.139.6L846.3,485.59,896.976,485v24.371l-49.042.6,2.378,33.883h-26.6l-2.378-33.586-51.718.594Z" transform="translate(-627.711 -415)" fill="#6cd2ea" stroke="#6cd2ea" stroke-miterlimit="10" stroke-width="2.835"/>
        <path id="パス_3301" data-name="パス 3301" d="M1021.455,466.185v25.264H899.743V466.185Z" transform="translate(-621.407 -412.52)" fill="#6cd2ea" stroke="#6cd2ea" stroke-miterlimit="10" stroke-width="2.835"/>
      </g>
      <path id="パス_3302" data-name="パス 3302" d="M728.658,599.623v25.264H562.137V599.623Z" transform="translate(-363.542 -406.056)" fill="#6cd2ea" stroke="#6cd2ea" stroke-miterlimit="10" stroke-width="2.835"/>
      <path id="パス_3303" data-name="パス 3303" d="M785.335,549.036v39.679c34.626,8.321,47.258,11.889,69.1,19.468v27.493c-19.913-7.281-38.639-12.781-69.1-20.211v65.241h-27.2V549.036Z" transform="translate(-354.047 -408.507)" fill="#6cd2ea" stroke="#6cd2ea" stroke-miterlimit="10" stroke-width="2.835"/>
      <path id="パス_3304" data-name="パス 3304" d="M1024.276,548.161v23.63c0,12.929-3.567,15.9-19.022,16.347v5.054h17.535v18.427h-17.535v5.944h20.656v19.172H981.772c2.527,4.9,3.716,6.241,9.66,10.848a37.43,37.43,0,0,0,3.715-7.282h25.413a155.04,155.04,0,0,1-10.106,16.645c6.688,1.487,7.283,1.635,17.388,1.931v23.184c-17.091-.149-31.209-4.309-46.219-13.226v9.51c-14.415,1.487-32.4,2.676-65.984,4.309V660.364c6.836-.3,8.025-.3,14.861-.742V636.735h-8.618c-2.527,22.291-10.849,33.586-30.911,41.462V649.219c7.43-4.756,9.065-9.809,9.214-28.831V548.161Zm-25.711,23.927v-6.538H923.071v6.538Zm-56.918,45.475v-5.944H927.083V593.192h14.564v-5.054H923.071v29.425Zm27.344,39.532c-6.389-7.58-8.916-11.444-12.928-20.36h-2.676v21.549Zm13.227-63.9v-5.054H963.344v5.054Zm0,24.371v-5.944H963.344v5.944Z" transform="translate(-347.612 -408.549)" fill="#6cd2ea"/>
      <g id="グループ_121" data-name="グループ 121" transform="translate(0 4.099)">
        <path id="パス_3305" data-name="パス 3305" d="M372.719,418.91H627.955v68.729c.937,51.86-28.741,80.914-84.662,82.164H520.8c-1.25,47.486-5.623,63.731-21.556,83.725-16.558,19.682-40.3,29.991-68.1,29.678H373.03V632.6h39.676c41.862.313,52.172-10.309,52.172-54.045V519.5h75.915c24.368-.936,33.428-10,33.74-33.739V472.019H372.719Z" transform="translate(-372.719 -418.91)" fill="#6cd2ea"/>
      </g>
      <text id="ASCII_ART" data-name="ASCII ART" transform="translate(553.624 106.722)" fill="#15285e" font-size="24" font-family="Helvetica"><tspan x="0" y="0">ASCII ART</tspan></text>
      <text id="_EXHIBITION" data-name=" EXHIBITION" transform="translate(547.953 130.927)" fill="#15285e" font-size="21" font-family="Helvetica"><tspan x="0" y="0" xml:space="preserve"> EXHIBITION</tspan></text>
    </g>
  </g>
</svg>
