<svg xmlns="http://www.w3.org/2000/svg" width="320" height="131.4" viewBox="0 0 320 131.4">
  <g id="twitter" transform="translate(-1061 -22)">
    <g id="グループ_244" data-name="グループ 244" transform="translate(238 5)">
      <path id="パス_4246" data-name="パス 4246" d="M1143,148H902L852,98,823,83l29-15,50-51h241Z" fill="#fff"/>
      <path id="パス_4247" data-name="パス 4247" d="M863.987,53.522l34.7-34.7,1.117,1.117-34.7,34.7Z" fill="#f9d332"/>
      <path id="パス_4248" data-name="パス 4248" d="M902.107,17.469h38.517v1.54H902.107Z" fill="#f9d332"/>
      <path id="パス_4249" data-name="パス 4249" d="M941.576,17.469h38.518v1.54H941.576Z" fill="#f9d332"/>
      <path id="パス_4250" data-name="パス 4250" d="M981.044,17.469h38.518v1.54H981.044Z" fill="#f9d332"/>
      <path id="パス_4251" data-name="パス 4251" d="M1020.513,17.469h38.518v1.54h-38.518Z" fill="#f9d332"/>
      <path id="パス_4252" data-name="パス 4252" d="M1059.982,17.469H1098.5v1.54h-38.518Z" fill="#f9d332"/>
      <path id="パス_4253" data-name="パス 4253" d="M852.328,68.221l1.118,2.156-24.922,12.71v.077l24.922,12.712-1.118,2.156L823.479,83.2v-.155Z" fill="#f9d332"/>
      <path id="パス_4254" data-name="パス 4254" d="M899.808,145.935l-1.117,1.118-34.7-34.7,1.117-1.118Z" fill="#f9d332"/>
      <path id="パス_4255" data-name="パス 4255" d="M902.107,146.861h38.517V148.4H902.107Z" fill="#f9d332"/>
      <path id="パス_4256" data-name="パス 4256" d="M941.576,146.861h38.518V148.4H941.576Z" fill="#f9d332"/>
      <path id="パス_4257" data-name="パス 4257" d="M981.044,146.861h38.518V148.4H981.044Z" fill="#f9d332"/>
      <path id="パス_4258" data-name="パス 4258" d="M1020.513,146.861h38.518V148.4h-38.518Z" fill="#f9d332"/>
      <path id="パス_4259" data-name="パス 4259" d="M1059.982,146.861H1098.5V148.4h-38.518Z" fill="#f9d332"/>
      <path id="パス_4260" data-name="パス 4260" d="M1098.982,146.861H1137.5V148.4h-38.518Z" fill="#f9d332"/>
      <path id="パス_4261" data-name="パス 4261" d="M1098.982,17.469H1137.5v1.54h-38.518Z" fill="#f9d332"/>
    </g>
    <g id="グループ_245" data-name="グループ 245" transform="translate(0 6)">
      <rect id="長方形_79" data-name="長方形 79" width="189" height="94" transform="translate(1142.486 35)" fill="#6cd2ea"/>
      <g id="グループ_117" data-name="グループ 117">
        <g id="グループ_116" data-name="グループ 116">
          <text id="NEWS" transform="translate(1156.855 79.917)" fill="#fefefe" font-size="36" font-family="Helvetica"><tspan x="0" y="0">NEWS</tspan></text>
          <text id="お知らせ_混雑情報" data-name="お知らせ・混雑情報" transform="translate(1162.587 108.892)" fill="#fefefe" font-size="18" font-family="PingFangTC-Regular, PingFang TC" letter-spacing="0.025em"><tspan x="0" y="0">お知らせ・混雑情報</tspan></text>
        </g>
        <path id="パス_3218" data-name="パス 3218" d="M1279.429,65.82a7.3,7.3,0,0,1-2.316-8.9c.2-.464.343-.588.74-.122a20.318,20.318,0,0,0,13.9,7.013c.425.03.5-.057.44-.476a7.186,7.186,0,0,1,11.95-6.435.979.979,0,0,0,1.029.251,15.974,15.974,0,0,0,3.812-1.522c-.12,1.085-1,2.291-2.772,3.783a5.659,5.659,0,0,0,1.882-.318c.611-.163,1.207-.386,1.917-.618a13.1,13.1,0,0,1-3.027,3.256,1.147,1.147,0,0,0-.49,1.01c-.227,8.447-3.8,15-11.471,18.758-6.548,3.211-13.179,2.736-19.54-.894-.074-.042-.14-.1-.375-.261a16.412,16.412,0,0,0,5.565-.493,14.69,14.69,0,0,0,4.92-2.495,7.393,7.393,0,0,1-6.668-5,8.052,8.052,0,0,0,3.152-.165,7.4,7.4,0,0,1-4.119-2.592,6.921,6.921,0,0,1-1.54-4.5,8.246,8.246,0,0,0,2.429.743A.657.657,0,0,0,1279.429,65.82Z" fill="#fefefe"/>
      </g>
    </g>
  </g>
</svg>
